<?xml version="1.0" encoding="utf-8"?>
<svg version="1.1" xmlns:xlink="http://www.w3.org/1999/xlink" width="20px" height="20px" xmlns="http://www.w3.org/2000/svg">
  <g transform="matrix(1 0 0 1 -289 -73 )">
    <path d="M 1.53846153846155 15.3571428571429  L 1.53846153846155 18.5714285714286  L 5 18.5714285714286  L 5 15.3571428571429  L 1.53846153846155 15.3571428571429  Z M 5.76923076923077 15.3571428571429  L 5.76923076923077 18.5714285714286  L 9.61538461538464 18.5714285714286  L 9.61538461538464 15.3571428571429  L 5.76923076923077 15.3571428571429  Z M 1.53846153846155 11.0714285714286  L 1.53846153846155 14.6428571428571  L 5 14.6428571428571  L 5 11.0714285714286  L 1.53846153846155 11.0714285714286  Z M 5.76923076923077 11.0714285714286  L 5.76923076923077 14.6428571428571  L 9.61538461538464 14.6428571428571  L 9.61538461538464 11.0714285714286  L 5.76923076923077 11.0714285714286  Z M 1.53846153846155 7.14285714285714  L 1.53846153846155 10.3571428571429  L 5 10.3571428571429  L 5 7.14285714285714  L 1.53846153846155 7.14285714285714  Z M 10.3846153846154 15.3571428571429  L 10.3846153846154 18.5714285714286  L 14.2307692307692 18.5714285714286  L 14.2307692307692 15.3571428571429  L 10.3846153846154 15.3571428571429  Z M 5.76923076923077 7.14285714285714  L 5.76923076923077 10.3571428571429  L 9.61538461538464 10.3571428571429  L 9.61538461538464 7.14285714285714  L 5.76923076923077 7.14285714285714  Z M 15 15.3571428571429  L 15 18.5714285714286  L 18.4615384615385 18.5714285714286  L 18.4615384615385 15.3571428571429  L 15 15.3571428571429  Z M 10.3846153846154 11.0714285714286  L 10.3846153846154 14.6428571428571  L 14.2307692307692 14.6428571428571  L 14.2307692307692 11.0714285714286  L 10.3846153846154 11.0714285714286  Z M 6.03966346153845 5.25111607142857  C 6.11578525641028 5.18043154761905  6.15384615384613 5.09672619047619  6.15384615384613 5  L 6.15384615384613 1.78571428571428  C 6.15384615384613 1.68898809523809  6.11578525641028 1.60528273809524  6.03966346153845 1.53459821428572  C 5.96354166666669 1.46391369047619  5.87339743589746 1.42857142857143  5.76923076923077 1.42857142857143  L 5 1.42857142857143  C 4.89583333333331 1.42857142857143  4.80568910256409 1.46391369047619  4.72956730769232 1.53459821428572  C 4.6534455128205 1.60528273809524  4.61538461538464 1.68898809523809  4.61538461538464 1.78571428571428  L 4.61538461538464 5  C 4.61538461538464 5.09672619047619  4.6534455128205 5.18043154761905  4.72956730769232 5.25111607142857  C 4.80568910256409 5.32180059523809  4.89583333333331 5.35714285714286  5 5.35714285714286  L 5.76923076923077 5.35714285714286  C 5.87339743589746 5.35714285714286  5.96354166666669 5.32180059523809  6.03966346153845 5.25111607142857  Z M 15 11.0714285714286  L 15 14.6428571428571  L 18.4615384615385 14.6428571428571  L 18.4615384615385 11.0714285714286  L 15 11.0714285714286  Z M 10.3846153846154 7.14285714285714  L 10.3846153846154 10.3571428571429  L 14.2307692307692 10.3571428571429  L 14.2307692307692 7.14285714285714  L 10.3846153846154 7.14285714285714  Z M 15 7.14285714285714  L 15 10.3571428571429  L 18.4615384615385 10.3571428571429  L 18.4615384615385 7.14285714285714  L 15 7.14285714285714  Z M 15.2704326923077 5.25111607142857  C 15.3465544871795 5.18043154761905  15.3846153846154 5.09672619047619  15.3846153846154 5  L 15.3846153846154 1.78571428571428  C 15.3846153846154 1.68898809523809  15.3465544871795 1.60528273809524  15.2704326923077 1.53459821428572  C 15.1943108974359 1.46391369047619  15.1041666666667 1.42857142857143  15 1.42857142857143  L 14.2307692307692 1.42857142857143  C 14.1266025641025 1.42857142857143  14.0364583333333 1.46391369047619  13.9603365384615 1.53459821428572  C 13.8842147435897 1.60528273809524  13.8461538461539 1.68898809523809  13.8461538461539 1.78571428571428  L 13.8461538461539 5  C 13.8461538461539 5.09672619047619  13.8842147435897 5.18043154761905  13.9603365384615 5.25111607142857  C 14.0364583333333 5.32180059523809  14.1266025641025 5.35714285714286  14.2307692307692 5.35714285714286  L 15 5.35714285714286  C 15.1041666666667 5.35714285714286  15.1943108974359 5.32180059523809  15.2704326923077 5.25111607142857  Z M 19.5432692307692 3.28125  C 19.8477564102564 3.56398809523809  20 3.89880952380953  20 4.28571428571428  L 20 18.5714285714286  C 20 18.9583333333333  19.8477564102564 19.2931547619048  19.5432692307692 19.5758928571429  C 19.238782051282 19.8586309523809  18.8782051282051 20  18.4615384615385 20  L 1.53846153846155 20  C 1.12179487179486 20  0.761217948717956 19.8586309523809  0.456730769230774 19.5758928571429  C 0.152243589743591 19.2931547619048  0 18.9583333333333  0 18.5714285714286  L 0 4.28571428571428  C 0 3.89880952380953  0.152243589743591 3.56398809523809  0.456730769230774 3.28125  C 0.761217948717956 2.9985119047619  1.12179487179486 2.85714285714286  1.53846153846155 2.85714285714286  L 3.07692307692309 2.85714285714286  L 3.07692307692309 1.78571428571428  C 3.07692307692309 1.29464285714286  3.26522435897436 0.874255952380953  3.64182692307691 0.524553571428573  C 4.0184294871795 0.17485119047619  4.47115384615387 0  5 0  L 5.76923076923077 0  C 6.29807692307691 0  6.75080128205127 0.17485119047619  7.12740384615387 0.524553571428573  C 7.50400641025641 0.874255952380953  7.69230769230768 1.29464285714286  7.69230769230768 1.78571428571428  L 7.69230769230768 2.85714285714286  L 12.3076923076923 2.85714285714286  L 12.3076923076923 1.78571428571428  C 12.3076923076923 1.29464285714286  12.4959935897436 0.874255952380953  12.8725961538461 0.524553571428573  C 13.2491987179487 0.17485119047619  13.7019230769231 0  14.2307692307692 0  L 15 0  C 15.5288461538461 0  15.9815705128205 0.17485119047619  16.3581730769231 0.524553571428573  C 16.7347756410256 0.874255952380953  16.9230769230769 1.29464285714286  16.9230769230769 1.78571428571428  L 16.9230769230769 2.85714285714286  L 18.4615384615385 2.85714285714286  C 18.8782051282051 2.85714285714286  19.238782051282 2.9985119047619  19.5432692307692 3.28125  Z " fill-rule="nonzero" fill="#cccccc" stroke="none" transform="matrix(1 0 0 1 289 73 )" />
  </g>
</svg>