<?xml version="1.0" encoding="utf-8"?>
<svg version="1.1" xmlns:xlink="http://www.w3.org/1999/xlink" width="30px" height="20px" xmlns="http://www.w3.org/2000/svg">
  <g transform="matrix(1 0 0 1 -433 -164 )">
    <path d="M 14.4580078125 14.4466145833333  C 14.8193359375 14.0776909722222  15 13.6154513888889  15 13.0598958333333  C 15 12.5043402777778  14.9560546875 11.9943576388889  14.8681640625 11.5299479166667  C 14.7802734375 11.0655381944444  14.63623046875 10.6184895833333  14.43603515625 10.1888020833333  C 14.23583984375 9.75911458333334  13.9404296875 9.42057291666666  13.5498046875 9.17317708333334  C 13.1591796875 8.92578125  12.685546875 8.80208333333334  12.12890625 8.80208333333334  C 12.0703125 8.83680555555554  11.923828125 8.91493055555554  11.689453125 9.03645833333334  C 11.455078125 9.15798611111111  11.27197265625 9.25130208333334  11.14013671875 9.31640625  C 11.00830078125 9.38151041666666  10.8349609375 9.4574652777778  10.6201171875 9.54427083333334  C 10.4052734375 9.63107638888889  10.1953125 9.69401041666666  9.990234375 9.73307291666666  C 9.78515625 9.77213541666666  9.580078125 9.79166666666666  9.375 9.79166666666666  C 9.169921875 9.79166666666666  8.96484375 9.77213541666666  8.759765625 9.73307291666666  C 8.5546875 9.69401041666666  8.3447265625 9.63107638888889  8.1298828125 9.54427083333334  C 7.9150390625 9.4574652777778  7.74169921875 9.38151041666666  7.60986328125 9.31640625  C 7.47802734375 9.25130208333334  7.294921875 9.15798611111111  7.060546875 9.03645833333334  C 6.826171875 8.91493055555554  6.6796875 8.83680555555554  6.62109375 8.80208333333334  C 6.064453125 8.80208333333334  5.5908203125 8.92578125  5.2001953125 9.17317708333334  C 4.8095703125 9.42057291666666  4.51416015625 9.75911458333334  4.31396484375 10.1888020833333  C 4.11376953125 10.6184895833333  3.9697265625 11.0655381944444  3.8818359375 11.5299479166667  C 3.7939453125 11.9943576388889  3.75 12.5043402777778  3.75 13.0598958333333  C 3.75 13.6154513888889  3.9306640625 14.0776909722222  4.2919921875 14.4466145833333  C 4.6533203125 14.8155381944444  5.09765625 15  5.625 15  L 13.125 15  C 13.65234375 15  14.0966796875 14.8155381944444  14.4580078125 14.4466145833333  Z M 11.72607421875 8.37890625  C 12.37548828125 7.80164930555554  12.7001953125 7.1050347222222  12.7001953125 6.2890625  C 12.7001953125 5.4730902777778  12.37548828125 4.77647569444446  11.72607421875 4.19921875  C 11.07666015625 3.62196180555554  10.29296875 3.33333333333334  9.375 3.33333333333334  C 8.45703125 3.33333333333334  7.67333984375 3.62196180555554  7.02392578125 4.19921875  C 6.37451171875 4.77647569444446  6.0498046875 5.4730902777778  6.0498046875 6.2890625  C 6.0498046875 7.1050347222222  6.37451171875 7.80164930555554  7.02392578125 8.37890625  C 7.67333984375 8.95616319444446  8.45703125 9.24479166666666  9.375 9.24479166666666  C 10.29296875 9.24479166666666  11.07666015625 8.95616319444446  11.72607421875 8.37890625  Z M 26.1181640625 13.2161458333333  C 26.2060546875 13.1380208333333  26.25 13.0381944444444  26.25 12.9166666666667  L 26.25 12.0833333333333  C 26.25 11.9618055555555  26.2060546875 11.8619791666667  26.1181640625 11.7838541666667  C 26.0302734375 11.7057291666667  25.91796875 11.6666666666667  25.78125 11.6666666666667  L 17.34375 11.6666666666667  C 17.20703125 11.6666666666667  17.0947265625 11.7057291666667  17.0068359375 11.7838541666667  C 16.9189453125 11.8619791666667  16.875 11.9618055555555  16.875 12.0833333333333  L 16.875 12.9166666666667  C 16.875 13.0381944444444  16.9189453125 13.1380208333333  17.0068359375 13.2161458333333  C 17.0947265625 13.2942708333333  17.20703125 13.3333333333333  17.34375 13.3333333333333  L 25.78125 13.3333333333333  C 25.91796875 13.3333333333333  26.0302734375 13.2942708333333  26.1181640625 13.2161458333333  Z M 26.09619140625 9.86328125  C 26.19873046875 9.77213541666666  26.25 9.66145833333334  26.25 9.53125  L 26.25 8.80208333333334  C 26.25 8.671875  26.19873046875 8.56119791666666  26.09619140625 8.47005208333334  C 25.99365234375 8.37890625  25.869140625 8.33333333333334  25.72265625 8.33333333333334  L 17.40234375 8.33333333333334  C 17.255859375 8.33333333333334  17.13134765625 8.37890625  17.02880859375 8.47005208333334  C 16.92626953125 8.56119791666666  16.875 8.671875  16.875 8.80208333333334  L 16.875 9.53125  C 16.875 9.66145833333334  16.92626953125 9.77213541666666  17.02880859375 9.86328125  C 17.13134765625 9.95442708333334  17.255859375 10  17.40234375 10  L 25.72265625 10  C 25.869140625 10  25.99365234375 9.95442708333334  26.09619140625 9.86328125  Z M 26.1181640625 6.54947916666666  C 26.2060546875 6.47135416666666  26.25 6.3715277777778  26.25 6.25  L 26.25 5.41666666666666  C 26.25 5.29513888888889  26.2060546875 5.1953125  26.1181640625 5.1171875  C 26.0302734375 5.0390625  25.91796875 5  25.78125 5  L 17.34375 5  C 17.20703125 5  17.0947265625 5.0390625  17.0068359375 5.1171875  C 16.9189453125 5.1953125  16.875 5.29513888888889  16.875 5.41666666666666  L 16.875 6.25  C 16.875 6.3715277777778  16.9189453125 6.47135416666666  17.0068359375 6.54947916666666  C 17.0947265625 6.62760416666666  17.20703125 6.66666666666666  17.34375 6.66666666666666  L 25.78125 6.66666666666666  C 25.91796875 6.66666666666666  26.0302734375 6.62760416666666  26.1181640625 6.54947916666666  Z M 29.3115234375 0.611979166666657  C 29.7705078125 1.0199652777778  30 1.51041666666666  30 2.08333333333334  L 30 17.9166666666667  C 30 18.4895833333333  29.7705078125 18.9800347222222  29.3115234375 19.3880208333333  C 28.8525390625 19.7960069444445  28.30078125 20  27.65625 20  L 22.5 20  L 22.5 18.75  C 22.5 18.6284722222222  22.4560546875 18.5286458333333  22.3681640625 18.4505208333333  C 22.2802734375 18.3723958333333  22.16796875 18.3333333333333  22.03125 18.3333333333333  L 21.09375 18.3333333333333  C 20.95703125 18.3333333333333  20.8447265625 18.3723958333333  20.7568359375 18.4505208333333  C 20.6689453125 18.5286458333333  20.625 18.6284722222222  20.625 18.75  L 20.625 20  L 9.375 20  L 9.375 18.75  C 9.375 18.6284722222222  9.3310546875 18.5286458333333  9.2431640625 18.4505208333333  C 9.1552734375 18.3723958333333  9.04296875 18.3333333333333  8.90625 18.3333333333333  L 7.96875 18.3333333333333  C 7.83203125 18.3333333333333  7.7197265625 18.3723958333333  7.6318359375 18.4505208333333  C 7.5439453125 18.5286458333333  7.5 18.6284722222222  7.5 18.75  L 7.5 20  L 2.34375 20  C 1.69921875 20  1.1474609375 19.7960069444445  0.6884765625 19.3880208333333  C 0.2294921875 18.9800347222222  0 18.4895833333333  0 17.9166666666667  L 0 2.08333333333334  C 0 1.51041666666666  0.2294921875 1.0199652777778  0.6884765625 0.611979166666657  C 1.1474609375 0.203993055555543  1.69921875 0  2.34375 0  L 27.65625 0  C 28.30078125 0  28.8525390625 0.203993055555543  29.3115234375 0.611979166666657  Z " fill-rule="nonzero" fill="#169bd5" stroke="none" transform="matrix(1 0 0 1 433 164 )" />
  </g>
</svg>