<?xml version="1.0" encoding="utf-8"?>
<svg version="1.1" xmlns:xlink="http://www.w3.org/1999/xlink" width="15px" height="15px" xmlns="http://www.w3.org/2000/svg">
  <g transform="matrix(1 0 0 1 -433 -22 )">
    <path d="M 11.162109375 7.275390625  C 11.220703125 7.333984375  11.25 7.40885416666667  11.25 7.5  C 11.25 7.59114583333333  11.220703125 7.666015625  11.162109375 7.724609375  L 8.037109375 10.849609375  C 7.978515625 10.908203125  7.90364583333331 10.9375  7.8125 10.9375  C 7.72786458333331 10.9375  7.65462239583331 10.9065755208333  7.5927734375 10.8447265625  C 7.53092447916669 10.7828776041667  7.5 10.7096354166667  7.5 10.625  L 7.5 8.75  L 4.0625 8.75  C 3.97786458333331 8.75  3.90462239583331 8.71907552083333  3.8427734375 8.6572265625  C 3.78092447916669 8.59537760416667  3.75 8.52213541666667  3.75 8.4375  L 3.75 6.5625  C 3.75 6.47786458333333  3.78092447916669 6.40462239583333  3.8427734375 6.3427734375  C 3.90462239583331 6.28092447916667  3.97786458333331 6.25  4.0625 6.25  L 7.5 6.25  L 7.5 4.375  C 7.5 4.28385416666667  7.529296875 4.208984375  7.587890625 4.150390625  C 7.646484375 4.091796875  7.72135416666669 4.0625  7.8125 4.0625  C 7.890625 4.0625  7.96875 4.09505208333333  8.046875 4.16015625  L 11.162109375 7.275390625  Z M 12.099609375 10.166015625  C 12.5748697916667 9.35221354166666  12.8125 8.46354166666667  12.8125 7.5  C 12.8125 6.53645833333333  12.5748697916667 5.64778645833333  12.099609375 4.833984375  C 11.6243489583333 4.02018229166667  10.9798177083333 3.37565104166667  10.166015625 2.900390625  C 9.35221354166669 2.42513020833333  8.46354166666669 2.1875  7.5 2.1875  C 6.53645833333331 2.1875  5.64778645833331 2.42513020833333  4.833984375 2.900390625  C 4.02018229166669 3.37565104166667  3.37565104166669 4.02018229166667  2.900390625 4.833984375  C 2.42513020833331 5.64778645833333  2.1875 6.53645833333333  2.1875 7.5  C 2.1875 8.46354166666667  2.42513020833331 9.35221354166666  2.900390625 10.166015625  C 3.37565104166669 10.9798177083333  4.02018229166669 11.6243489583333  4.833984375 12.099609375  C 5.64778645833331 12.5748697916667  6.53645833333331 12.8125  7.5 12.8125  C 8.46354166666669 12.8125  9.35221354166669 12.5748697916667  10.166015625 12.099609375  C 10.9798177083333 11.6243489583333  11.6243489583333 10.9798177083333  12.099609375 10.166015625  Z M 13.994140625 3.7353515625  C 14.6647135416667 4.88444010416667  15 6.13932291666666  15 7.5  C 15 8.86067708333333  14.6647135416667 10.1155598958333  13.994140625 11.2646484375  C 13.3235677083333 12.4137369791667  12.4137369791667 13.3235677083333  11.2646484375 13.994140625  C 10.1155598958333 14.6647135416667  8.86067708333331 15  7.5 15  C 6.13932291666669 15  4.88444010416669 14.6647135416667  3.7353515625 13.994140625  C 2.58626302083331 13.3235677083333  1.67643229166669 12.4137369791667  1.005859375 11.2646484375  C 0.335286458333314 10.1155598958333  0 8.86067708333333  0 7.5  C 0 6.13932291666666  0.335286458333314 4.88444010416667  1.005859375 3.7353515625  C 1.67643229166669 2.58626302083333  2.58626302083331 1.67643229166667  3.7353515625 1.005859375  C 4.88444010416669 0.335286458333332  6.13932291666669 0  7.5 0  C 8.86067708333331 0  10.1155598958333 0.335286458333332  11.2646484375 1.005859375  C 12.4137369791667 1.67643229166667  13.3235677083333 2.58626302083333  13.994140625 3.7353515625  Z " fill-rule="nonzero" fill="#ffffff" stroke="none" transform="matrix(1 0 0 1 433 22 )" />
  </g>
</svg>