<?xml version="1.0" encoding="utf-8"?>
<svg version="1.1" xmlns:xlink="http://www.w3.org/1999/xlink" width="15px" height="15px" xmlns="http://www.w3.org/2000/svg">
  <g transform="matrix(1 0 0 1 -210 -191 )">
    <path d="M 12.314453125 8.564453125  C 12.4381510416667 8.44075520833334  12.5 8.29427083333334  12.5 8.125  L 12.5 6.875  C 12.5 6.70572916666666  12.4381510416667 6.55924479166666  12.314453125 6.435546875  C 12.1907552083333 6.31184895833334  12.0442708333333 6.25  11.875 6.25  L 3.125 6.25  C 2.95572916666666 6.25  2.80924479166666 6.31184895833334  2.685546875 6.435546875  C 2.56184895833334 6.55924479166666  2.5 6.70572916666666  2.5 6.875  L 2.5 8.125  C 2.5 8.29427083333334  2.56184895833334 8.44075520833334  2.685546875 8.564453125  C 2.80924479166666 8.68815104166666  2.95572916666666 8.75  3.125 8.75  L 11.875 8.75  C 12.0442708333333 8.75  12.1907552083333 8.68815104166666  12.314453125 8.564453125  Z M 14.1748046875 0.8251953125  C 14.7249348958333 1.37532552083334  15 2.03776041666666  15 2.8125  L 15 12.1875  C 15 12.9622395833333  14.7249348958333 13.6246744791667  14.1748046875 14.1748046875  C 13.6246744791667 14.7249348958333  12.9622395833333 15  12.1875 15  L 2.8125 15  C 2.03776041666666 15  1.37532552083334 14.7249348958333  0.8251953125 14.1748046875  C 0.275065104166657 13.6246744791667  0 12.9622395833333  0 12.1875  L 0 2.8125  C 0 2.03776041666666  0.275065104166657 1.37532552083334  0.8251953125 0.8251953125  C 1.37532552083334 0.275065104166657  2.03776041666666 0  2.8125 0  L 12.1875 0  C 12.9622395833333 0  13.6246744791667 0.275065104166657  14.1748046875 0.8251953125  Z " fill-rule="nonzero" fill="#169bd5" stroke="none" transform="matrix(1 0 0 1 210 191 )" />
  </g>
</svg>