<?xml version="1.0" encoding="utf-8"?>
<svg version="1.1" xmlns:xlink="http://www.w3.org/1999/xlink" width="15px" height="20px" xmlns="http://www.w3.org/2000/svg">
  <g transform="matrix(1 0 0 1 -561 -346 )">
    <path d="M 14.7422680412371 9.5390781563126  C 14.9140893470791 9.67267869071475  15 9.82631930527725  15 10  C 15 10.1736806947227  14.9140893470791 10.3273213092853  14.7422680412371 10.4609218436874  L 2.73195876288662 19.7995991983968  C 2.56013745704468 19.9331997327989  2.36254295532649 20  2.13917525773195 20  C 1.91580756013741 20  1.71821305841922 19.9331997327989  1.54639175257728 19.7995991983968  L 0.257731958762861 18.7975951903808  C 0.0859106529209157 18.6639946559786  0 18.5103540414162  0 18.3366733466934  C 0 18.1629926519706  0.0859106529209157 18.0093520374081  0.257731958762861 17.875751503006  L 10.3865979381443 10  L 0.257731958762861 2.12424849699397  C 0.0859106529209157 1.99064796259188  0 1.83700734802937  0 1.66332665330663  C 0 1.48964595858382  0.0859106529209157 1.33600534402137  0.257731958762861 1.20240480961922  L 1.54639175257728 0.200400801603223  C 1.71821305841922 0.0668002672010743  1.91580756013741 0  2.13917525773195 0  C 2.36254295532649 0  2.56013745704468 0.0668002672010743  2.73195876288662 0.200400801603223  L 14.7422680412371 9.5390781563126  Z " fill-rule="nonzero" fill="#ffffff" stroke="none" transform="matrix(1 0 0 1 561 346 )" />
  </g>
</svg>