<?xml version="1.0" encoding="utf-8"?>
<svg version="1.1" xmlns:xlink="http://www.w3.org/1999/xlink" width="15px" height="20px" xmlns="http://www.w3.org/2000/svg">
  <g transform="matrix(1 0 0 1 -502 -347 )">
    <path d="M 14.7422680412371 1.20240480961922  C 14.9140893470791 1.33600534402137  15 1.48964595858382  15 1.66332665330663  C 15 1.83700734802937  14.9140893470791 1.99064796259188  14.7422680412371 2.12424849699397  L 4.61340206185565 10  L 14.7422680412371 17.875751503006  C 14.9140893470791 18.0093520374081  15 18.1629926519706  15 18.3366733466934  C 15 18.5103540414162  14.9140893470791 18.6639946559786  14.7422680412371 18.7975951903808  L 13.4536082474227 19.7995991983968  C 13.2817869415808 19.9331997327989  13.0841924398625 20  12.8608247422681 20  C 12.6374570446736 20  12.4398625429553 19.9331997327989  12.2680412371134 19.7995991983968  L 0.257731958762861 10.4609218436874  C 0.0859106529209726 10.3273213092853  0 10.1736806947227  0 10  C 0 9.82631930527725  0.0859106529209726 9.67267869071475  0.257731958762861 9.5390781563126  L 12.2680412371134 0.200400801603223  C 12.4398625429553 0.0668002672010743  12.6374570446736 0  12.8608247422681 0  C 13.0841924398625 0  13.2817869415808 0.0668002672010743  13.4536082474227 0.200400801603223  L 14.7422680412371 1.20240480961922  Z " fill-rule="nonzero" fill="#ffffff" stroke="none" transform="matrix(1 0 0 1 502 347 )" />
  </g>
</svg>