<?xml version="1.0" encoding="utf-8"?>
<svg version="1.1" xmlns:xlink="http://www.w3.org/1999/xlink" width="15px" height="15px" xmlns="http://www.w3.org/2000/svg">
  <g transform="matrix(1 0 0 1 -618 -19 )">
    <path d="M 12.36328125 6.357421875  C 12.48046875 6.240234375  12.5390625 6.09375  12.5390625 5.91796875  C 12.5390625 5.73567708333333  12.48046875 5.5859375  12.36328125 5.46875  L 11.474609375 4.58984375  C 11.3509114583334 4.46614583333333  11.2044270833334 4.404296875  11.03515625 4.404296875  C 10.8658854166666 4.404296875  10.7194010416666 4.46614583333333  10.595703125 4.58984375  L 6.611328125 8.564453125  L 4.404296875 6.357421875  C 4.28059895833337 6.23372395833333  4.13411458333337 6.171875  3.96484375 6.171875  C 3.79557291666663 6.171875  3.64908854166663 6.23372395833333  3.525390625 6.357421875  L 2.63671875 7.236328125  C 2.51953125 7.353515625  2.4609375 7.50325520833333  2.4609375 7.685546875  C 2.4609375 7.861328125  2.51953125 8.0078125  2.63671875 8.125  L 6.171875 11.66015625  C 6.29557291666663 11.7838541666667  6.44205729166663 11.845703125  6.611328125 11.845703125  C 6.787109375 11.845703125  6.93684895833337 11.7838541666667  7.060546875 11.66015625  L 12.36328125 6.357421875  Z M 13.994140625 3.7353515625  C 14.6647135416666 4.88444010416667  15 6.13932291666666  15 7.5  C 15 8.86067708333333  14.6647135416666 10.1155598958333  13.994140625 11.2646484375  C 13.3235677083334 12.4137369791667  12.4137369791666 13.3235677083333  11.2646484375 13.994140625  C 10.1155598958334 14.6647135416667  8.86067708333337 15  7.5 15  C 6.13932291666663 15  4.88444010416663 14.6647135416667  3.7353515625 13.994140625  C 2.58626302083337 13.3235677083333  1.67643229166663 12.4137369791667  1.005859375 11.2646484375  C 0.335286458333371 10.1155598958333  0 8.86067708333333  0 7.5  C 0 6.13932291666666  0.335286458333371 4.88444010416667  1.005859375 3.7353515625  C 1.67643229166663 2.58626302083333  2.58626302083337 1.67643229166667  3.7353515625 1.005859375  C 4.88444010416663 0.335286458333332  6.13932291666663 0  7.5 0  C 8.86067708333337 0  10.1155598958334 0.335286458333332  11.2646484375 1.005859375  C 12.4137369791666 1.67643229166667  13.3235677083334 2.58626302083333  13.994140625 3.7353515625  Z " fill-rule="nonzero" fill="#ffffff" stroke="none" transform="matrix(1 0 0 1 618 19 )" />
  </g>
</svg>