<?xml version="1.0" encoding="utf-8"?>
<svg version="1.1" xmlns:xlink="http://www.w3.org/1999/xlink" width="15px" height="15px" xmlns="http://www.w3.org/2000/svg">
  <g transform="matrix(1 0 0 1 -673 -23 )">
    <path d="M 14.7017045454546 5.75284090909091  C 14.9005681818182 5.95170454545454  15 6.19318181818182  15 6.47727272727273  L 15 8.52272727272727  C 15 8.80681818181818  14.9005681818182 9.04829545454545  14.7017045454546 9.24715909090909  C 14.5028409090909 9.44602272727273  14.2613636363636 9.54545454545455  13.9772727272727 9.54545454545455  L 9.54545454545456 9.54545454545455  L 9.54545454545456 13.9772727272727  C 9.54545454545456 14.2613636363636  9.44602272727275 14.5028409090909  9.24715909090907 14.7017045454545  C 9.04829545454544 14.9005681818182  8.80681818181819 15  8.52272727272725 15  L 6.47727272727275 15  C 6.19318181818181 15  5.95170454545456 14.9005681818182  5.75284090909093 14.7017045454545  C 5.55397727272725 14.5028409090909  5.45454545454544 14.2613636363636  5.45454545454544 13.9772727272727  L 5.45454545454544 9.54545454545455  L 1.02272727272725 9.54545454545455  C 0.738636363636374 9.54545454545455  0.497159090909065 9.44602272727273  0.298295454545439 9.24715909090909  C 0.099431818181813 9.04829545454545  0 8.80681818181818  0 8.52272727272727  L 0 6.47727272727273  C 0 6.19318181818182  0.099431818181813 5.95170454545454  0.298295454545439 5.75284090909091  C 0.497159090909065 5.55397727272727  0.738636363636374 5.45454545454545  1.02272727272725 5.45454545454545  L 5.45454545454544 5.45454545454545  L 5.45454545454544 1.02272727272727  C 5.45454545454544 0.73863636363636  5.55397727272725 0.497159090909093  5.75284090909093 0.298295454545453  C 5.95170454545456 0.0994318181818201  6.19318181818181 0  6.47727272727275 0  L 8.52272727272725 0  C 8.80681818181819 0  9.04829545454544 0.0994318181818201  9.24715909090907 0.298295454545453  C 9.44602272727275 0.497159090909093  9.54545454545456 0.73863636363636  9.54545454545456 1.02272727272727  L 9.54545454545456 5.45454545454545  L 13.9772727272727 5.45454545454545  C 14.2613636363636 5.45454545454545  14.5028409090909 5.55397727272727  14.7017045454546 5.75284090909091  Z " fill-rule="nonzero" fill="#ffffff" stroke="none" transform="matrix(1 0 0 1 673 23 )" />
  </g>
</svg>