<?xml version="1.0" encoding="utf-8"?>
<svg version="1.1" xmlns:xlink="http://www.w3.org/1999/xlink" width="15px" height="15px" xmlns="http://www.w3.org/2000/svg">
  <g transform="matrix(1 0 0 1 -757 -24 )">
    <path d="M 6.9955156950673 11.25  L 7.4663677130045 11.25  L 8.44170403587441 10.0142045454545  L 7.16367713004479 8.39488636363636  L 6.18834080717488 9.63068181818182  L 6.18834080717488 10.2272727272727  L 6.9955156950673 10.2272727272727  L 6.9955156950673 11.25  Z M 11.1575112107623 3.93110795454545  C 11.2528026905829 3.81036931818182  11.2556053811659 3.69318181818182  11.1659192825113 3.57954545454545  C 11.0762331838565 3.46590909090909  10.9837443946188 3.46946022727273  10.8884529147982 3.59019886363637  L 7.94562780269064 7.31889204545454  C 7.85033632286991 7.43963068181818  7.84753363228697 7.55681818181818  7.93721973094171 7.67045454545454  C 8.02690582959644 7.78409090909091  8.11939461883412 7.78053977272727  8.21468609865474 7.65980113636364  L 11.1575112107623 3.93110795454545  Z M 11.670403587444 9.59872159090909  C 11.7825112107623 9.65553977272727  11.8385650224216 9.75852272727273  11.8385650224216 9.90767045454546  L 11.8385650224216 11.9318181818182  C 11.8385650224216 12.7769886363636  11.6017376681615 13.4996448863636  11.1280829596412 14.0997869318182  C 10.6544282511211 14.6999289772727  10.0840807174887 15  9.41704035874443 15  L 2.42152466367713 15  C 1.7544843049327 15  1.18413677130047 14.6999289772727  0.710482062780216 14.0997869318182  C 0.236827354260072 13.4996448863636  0 12.7769886363636  0 11.9318181818182  L 0 3.06818181818182  C 0 2.22301136363636  0.236827354260072 1.50035511363636  0.710482062780216 0.90021306818182  C 1.18413677130047 0.300071022727272  1.7544843049327 0  2.42152466367713 0  L 9.41704035874443 0  C 9.77017937219728 0  10.0980941704036 0.0887784090909083  10.4007847533633 0.266335227272727  C 10.484865470852 0.316051136363637  10.5353139013453 0.397727272727273  10.552130044843 0.511363636363637  C 10.5689461883408 0.632102272727273  10.5437219730942 0.735085227272727  10.4764573991031 0.8203125  L 10.0644618834081 1.34232954545454  C 9.98598654708519 1.44176136363636  9.89630044843045 1.47017045454546  9.79540358744396 1.42755681818182  C 9.66647982062784 1.38494318181818  9.54035874439467 1.36363636363637  9.41704035874443 1.36363636363637  L 2.42152466367713 1.36363636363637  C 2.05156950672642 1.36363636363637  1.73486547085201 1.53053977272727  1.47141255605379 1.86434659090909  C 1.20795964125557 2.19815340909091  1.07623318385652 2.59943181818182  1.07623318385652 3.06818181818182  L 1.07623318385652 11.9318181818182  C 1.07623318385652 12.4005681818182  1.20795964125557 12.8018465909091  1.47141255605379 13.1356534090909  C 1.73486547085201 13.4694602272727  2.05156950672642 13.6363636363636  2.42152466367713 13.6363636363636  L 9.41704035874443 13.6363636363636  C 9.78699551569503 13.6363636363636  10.1036995515695 13.4694602272727  10.3671524663678 13.1356534090909  C 10.6306053811659 12.8018465909091  10.762331838565 12.4005681818182  10.762331838565 11.9318181818182  L 10.762331838565 10.5894886363636  C 10.762331838565 10.4971590909091  10.7875560538116 10.4190340909091  10.838004484305 10.3551136363636  L 11.3761210762332 9.67329545454546  C 11.4602017937219 9.56676136363636  11.5582959641256 9.54190340909091  11.670403587444 9.59872159090909  Z M 5.38116591928247 9.20454545454546  L 11.0313901345291 2.04545454545455  L 13.4529147982063 5.11363636363637  L 7.8026905829596 12.2727272727273  L 5.38116591928247 12.2727272727273  L 5.38116591928247 9.20454545454546  Z M 15 2.72727272727273  C 15 3.01136363636364  14.9215246636771 3.25284090909091  14.7645739910314 3.45170454545455  L 13.9910313901345 4.43181818181818  L 11.5695067264573 1.36363636363637  L 12.3430493273543 0.383522727272727  C 12.5 0.18465909090909  12.6905829596412 0.0852272727272752  12.9147982062781 0.0852272727272752  C 13.1390134529148 0.0852272727272752  13.329596412556 0.18465909090909  13.4865470852018 0.383522727272727  L 14.7645739910314 2.00284090909091  C 14.9215246636771 2.20170454545454  15 2.44318181818182  15 2.72727272727273  Z " fill-rule="nonzero" fill="#ffffff" stroke="none" transform="matrix(1 0 0 1 757 24 )" />
  </g>
</svg>