<?xml version="1.0" encoding="utf-8"?>
<svg version="1.1" xmlns:xlink="http://www.w3.org/1999/xlink" width="12px" height="12px" viewBox="129 159  12 12" xmlns="http://www.w3.org/2000/svg">
  <path d="M 135 159  C 138.36 159  141 161.64  141 165  C 141 168.36  138.36 171  135 171  C 131.64 171  129 168.36  129 165  C 129 161.64  131.64 159  135 159  Z " fill-rule="nonzero" fill="#ffffff" stroke="none" />
  <path d="M 135 159.5  C 138.08 159.5  140.5 161.92  140.5 165  C 140.5 168.08  138.08 170.5  135 170.5  C 131.92 170.5  129.5 168.08  129.5 165  C 129.5 161.92  131.92 159.5  135 159.5  Z " stroke-width="1" stroke="#797979" fill="none" />
  <path d="M 135 168  C 133.32 168  132 166.68  132 165  C 132 163.32  133.32 162  135 162  C 136.68 162  138 163.32  138 165  C 138 166.68  136.68 168  135 168  " fill-rule="nonzero" fill="#797979" stroke="none" />
</svg>