<?xml version="1.0" encoding="utf-8"?>
<svg version="1.1" xmlns:xlink="http://www.w3.org/1999/xlink" width="40px" height="40px" xmlns="http://www.w3.org/2000/svg">
  <g transform="matrix(1 0 0 1 -164 -215 )">
    <path d="M 32.4715909090909 18.4375  C 32.6420454545454 18.6079545454546  32.7272727272727 18.8257575757576  32.7272727272727 19.0909090909091  L 32.7272727272727 20.9090909090909  C 32.7272727272727 21.1742424242424  32.6420454545454 21.3920454545454  32.4715909090909 21.5625  C 32.3011363636364 21.7329545454546  32.0833333333334 21.8181818181818  31.8181818181818 21.8181818181818  L 21.8181818181818 21.8181818181818  L 21.8181818181818 31.8181818181818  C 21.8181818181818 32.0833333333333  21.7329545454546 32.3011363636364  21.5625 32.4715909090909  C 21.3920454545454 32.6420454545454  21.1742424242424 32.7272727272727  20.9090909090909 32.7272727272727  L 19.0909090909091 32.7272727272727  C 18.8257575757576 32.7272727272727  18.6079545454546 32.6420454545454  18.4375 32.4715909090909  C 18.2670454545454 32.3011363636364  18.1818181818182 32.0833333333333  18.1818181818182 31.8181818181818  L 18.1818181818182 21.8181818181818  L 8.18181818181819 21.8181818181818  C 7.91666666666669 21.8181818181818  7.69886363636363 21.7329545454546  7.52840909090907 21.5625  C 7.35795454545456 21.3920454545454  7.27272727272725 21.1742424242424  7.27272727272725 20.9090909090909  L 7.27272727272725 19.0909090909091  C 7.27272727272725 18.8257575757576  7.35795454545456 18.6079545454546  7.52840909090907 18.4375  C 7.69886363636363 18.2670454545454  7.91666666666669 18.1818181818182  8.18181818181819 18.1818181818182  L 18.1818181818182 18.1818181818182  L 18.1818181818182 8.18181818181819  C 18.1818181818182 7.91666666666663  18.2670454545454 7.69886363636363  18.4375 7.52840909090912  C 18.6079545454546 7.35795454545456  18.8257575757576 7.27272727272725  19.0909090909091 7.27272727272725  L 20.9090909090909 7.27272727272725  C 21.1742424242424 7.27272727272725  21.3920454545454 7.35795454545456  21.5625 7.52840909090912  C 21.7329545454546 7.69886363636363  21.8181818181818 7.91666666666663  21.8181818181818 8.18181818181819  L 21.8181818181818 18.1818181818182  L 31.8181818181818 18.1818181818182  C 32.0833333333334 18.1818181818182  32.3011363636364 18.2670454545454  32.4715909090909 18.4375  Z M 35.0284090909091 35.0284090909091  C 35.9185606060606 34.1382575757576  36.3636363636364 33.0681818181818  36 31.8181818181818  L 36 8.18181818181819  C 36.3636363636364 6.93181818181819  35.9185606060606 5.86174242424244  35.0284090909091 4.97159090909088  C 34.1382575757576 4.08143939393938  33.0681818181818 3.63636363636363  31.8181818181818 4  L 8.18181818181819 4  C 6.93181818181819 3.63636363636363  5.86174242424244 4.08143939393938  4.97159090909093 4.97159090909088  C 4.08143939393938 5.86174242424244  3.63636363636363 6.93181818181819  4 8.18181818181819  L 4 31.8181818181818  C 3.63636363636363 33.0681818181818  4.08143939393938 34.1382575757576  4.97159090909093 35.0284090909091  C 5.86174242424244 35.9185606060606  6.93181818181819 36.3636363636364  8.18181818181819 36  L 31.8181818181818 36  C 33.0681818181818 36.3636363636364  34.1382575757576 35.9185606060606  35.0284090909091 35.0284090909091  Z M 37.5994318181818 2.40056818181819  C 39.1998106060606 4.000946969697  40 5.92803030303031  40 8.18181818181819  L 40 31.8181818181818  C 40 34.0719696969697  39.1998106060606 35.999053030303  37.5994318181818 37.5994318181818  C 35.999053030303 39.1998106060606  34.0719696969697 40  31.8181818181818 40  L 8.18181818181819 40  C 5.92803030303031 40  4.000946969697 39.1998106060606  2.40056818181819 37.5994318181818  C 0.800189393939377 35.999053030303  0 34.0719696969697  0 31.8181818181818  L 0 8.18181818181819  C 0 5.92803030303031  0.800189393939377 4.000946969697  2.40056818181819 2.40056818181819  C 4.000946969697 0.800189393939377  5.92803030303031 0  8.18181818181819 0  L 31.8181818181818 0  C 34.0719696969697 0  35.999053030303 0.800189393939377  37.5994318181818 2.40056818181819  Z " fill-rule="nonzero" fill="#cccccc" stroke="none" transform="matrix(1 0 0 1 164 215 )" />
  </g>
</svg>