<?xml version="1.0" encoding="utf-8"?>
<svg version="1.1" xmlns:xlink="http://www.w3.org/1999/xlink" width="15px" height="15px" xmlns="http://www.w3.org/2000/svg">
  <g transform="matrix(1 0 0 1 -771 -52 )">
    <path d="M 9.14513221153845 5.85486778846155  C 9.20222355769226 5.91195913461539  9.23076923076917 5.97956730769232  9.23076923076917 6.05769230769231  L 9.23076923076917 6.63461538461538  C 9.23076923076917 6.71274038461539  9.20222355769226 6.78034855769229  9.14513221153845 6.83743990384615  C 9.08804086538464 6.89453125000001  9.02043269230774 6.92307692307693  8.94230769230762 6.92307692307693  L 6.92307692307691 6.92307692307693  L 6.92307692307691 8.94230769230769  C 6.92307692307691 9.02043269230768  6.89453125 9.08804086538461  6.83743990384619 9.14513221153847  C 6.78034855769226 9.20222355769232  6.71274038461547 9.23076923076924  6.63461538461536 9.23076923076924  L 6.05769230769238 9.23076923076924  C 5.97956730769238 9.23076923076924  5.91195913461536 9.20222355769232  5.85486778846155 9.14513221153847  C 5.79777644230762 9.08804086538461  5.76923076923083 9.02043269230768  5.76923076923083 8.94230769230769  L 5.76923076923083 6.92307692307693  L 3.75 6.92307692307693  C 3.671875 6.92307692307693  3.60426682692309 6.89453125000001  3.54717548076917 6.83743990384615  C 3.49008413461547 6.78034855769229  3.46153846153845 6.71274038461539  3.46153846153845 6.63461538461538  L 3.46153846153845 6.05769230769231  C 3.46153846153845 5.97956730769232  3.49008413461547 5.91195913461539  3.54717548076917 5.85486778846155  C 3.60426682692309 5.79777644230768  3.671875 5.76923076923076  3.75 5.76923076923076  L 5.76923076923083 5.76923076923076  L 5.76923076923083 3.75  C 5.76923076923083 3.671875  5.79777644230762 3.60426682692308  5.85486778846155 3.54717548076923  C 5.91195913461536 3.49008413461539  5.97956730769238 3.46153846153846  6.05769230769238 3.46153846153846  L 6.63461538461536 3.46153846153846  C 6.71274038461547 3.46153846153846  6.78034855769226 3.49008413461539  6.83743990384619 3.54717548076923  C 6.89453125 3.60426682692308  6.92307692307691 3.671875  6.92307692307691 3.75  L 6.92307692307691 5.76923076923076  L 8.94230769230762 5.76923076923076  C 9.02043269230774 5.76923076923076  9.08804086538464 5.79777644230768  9.14513221153845 5.85486778846155  Z M 9.19921875 9.19921875  C 9.98948317307691 8.40895432692308  10.3846153846154 7.4579326923077  10.3846153846154 6.34615384615385  C 10.3846153846154 5.23437499999999  9.98948317307691 4.28335336538461  9.19921875 3.49308894230769  C 8.40895432692309 2.70282451923077  7.45793269230774 2.30769230769231  6.34615384615381 2.30769230769231  C 5.234375 2.30769230769231  4.28335336538464 2.70282451923077  3.49308894230762 3.49308894230769  C 2.70282451923072 4.28335336538461  2.30769230769238 5.23437499999999  2.30769230769238 6.34615384615385  C 2.30769230769238 7.4579326923077  2.70282451923072 8.40895432692308  3.49308894230762 9.19921875  C 4.28335336538464 9.98948317307692  5.234375 10.3846153846154  6.34615384615381 10.3846153846154  C 7.45793269230774 10.3846153846154  8.40895432692309 9.98948317307692  9.19921875 9.19921875  Z M 14.6664663461538 13.0348557692308  C 14.8888221153846 13.2572115384616  15 13.5276442307692  15 13.8461538461539  C 15 14.1646634615384  14.8873197115385 14.4365985576923  14.6619591346154 14.6619591346154  C 14.4365985576924 14.8873197115385  14.1646634615385 15  13.8461538461538 15  C 13.5216346153846 15  13.2512019230769 14.8858173076923  13.0348557692308 14.6574519230769  L 9.94290865384619 11.5745192307692  C 8.8671875 12.3197115384615  7.66826923076928 12.6923076923077  6.34615384615381 12.6923076923077  C 5.48677884615381 12.6923076923077  4.66496394230762 12.5255408653846  3.88070913461536 12.1920072115385  C 3.09645432692309 11.8584735576923  2.42037259615381 11.4077524038461  1.85246394230762 10.83984375  C 1.28455528846155 10.2719350961539  0.833834134615358 9.59585336538462  0.50030048076917 8.81159855769231  C 0.166766826923094 8.02734375  0 7.20552884615384  0 6.34615384615385  C 0 5.48677884615385  0.166766826923094 4.66496394230769  0.50030048076917 3.88070913461538  C 0.833834134615358 3.09645432692307  1.28455528846155 2.42037259615385  1.85246394230762 1.85246394230769  C 2.42037259615381 1.28455528846154  3.09645432692309 0.83383413461538  3.88070913461536 0.500300480769226  C 4.66496394230762 0.166766826923066  5.48677884615381 0  6.34615384615381 0  C 7.20552884615381 0  8.02734375 0.166766826923066  8.81159855769238 0.500300480769226  C 9.59585336538464 0.83383413461538  10.2719350961538 1.28455528846154  10.83984375 1.85246394230769  C 11.4077524038462 2.42037259615385  11.8584735576924 3.09645432692307  12.1920072115385 3.88070913461538  C 12.5255408653846 4.66496394230769  12.6923076923076 5.48677884615385  12.6923076923076 6.34615384615385  C 12.6923076923076 7.66826923076923  12.3197115384615 8.8671875  11.5745192307692 9.94290865384615  L 14.6664663461538 13.0348557692308  Z " fill-rule="nonzero" fill="#ffffff" stroke="none" transform="matrix(1 0 0 1 771 52 )" />
  </g>
</svg>