<?xml version="1.0" encoding="utf-8"?>
<svg version="1.1" xmlns:xlink="http://www.w3.org/1999/xlink" width="15px" height="15px" xmlns="http://www.w3.org/2000/svg">
  <g transform="matrix(1 0 0 1 -560 -16 )">
    <path d="M 10.849609375 7.587890625  C 10.908203125 7.646484375  10.9375 7.72135416666667  10.9375 7.8125  C 10.9375 7.890625  10.9049479166666 7.96875  10.83984375 8.046875  L 7.724609375 11.162109375  C 7.65299479166663 11.220703125  7.578125 11.25  7.5 11.25  C 7.421875 11.25  7.34700520833337 11.220703125  7.275390625 11.162109375  L 4.150390625 8.037109375  C 4.052734375 7.93294270833333  4.02994791666663 7.81901041666667  4.08203125 7.6953125  C 4.13411458333337 7.56510416666666  4.23177083333337 7.5  4.375 7.5  L 6.25 7.5  L 6.25 4.0625  C 6.25 3.97135416666666  6.279296875 3.896484375  6.337890625 3.837890625  C 6.396484375 3.779296875  6.47135416666663 3.75  6.5625 3.75  L 8.4375 3.75  C 8.52864583333337 3.75  8.603515625 3.779296875  8.662109375 3.837890625  C 8.720703125 3.896484375  8.75 3.97135416666666  8.75 4.0625  L 8.75 7.5  L 10.625 7.5  C 10.7161458333334 7.5  10.791015625 7.529296875  10.849609375 7.587890625  Z M 10.166015625 2.900390625  C 9.35221354166663 2.42513020833333  8.46354166666663 2.1875  7.5 2.1875  C 6.53645833333337 2.1875  5.64778645833337 2.42513020833333  4.833984375 2.900390625  C 4.02018229166663 3.37565104166667  3.37565104166663 4.02018229166667  2.900390625 4.833984375  C 2.42513020833337 5.64778645833333  2.1875 6.53645833333333  2.1875 7.5  C 2.1875 8.46354166666667  2.42513020833337 9.35221354166666  2.900390625 10.166015625  C 3.37565104166663 10.9798177083333  4.02018229166663 11.6243489583333  4.833984375 12.099609375  C 5.64778645833337 12.5748697916667  6.53645833333337 12.8125  7.5 12.8125  C 8.46354166666663 12.8125  9.35221354166663 12.5748697916667  10.166015625 12.099609375  C 10.9798177083334 11.6243489583333  11.6243489583334 10.9798177083333  12.099609375 10.166015625  C 12.5748697916666 9.35221354166666  12.8125 8.46354166666667  12.8125 7.5  C 12.8125 6.53645833333333  12.5748697916666 5.64778645833333  12.099609375 4.833984375  C 11.6243489583334 4.02018229166667  10.9798177083334 3.37565104166667  10.166015625 2.900390625  Z M 13.994140625 3.7353515625  C 14.6647135416666 4.88444010416667  15 6.13932291666666  15 7.5  C 15 8.86067708333333  14.6647135416666 10.1155598958333  13.994140625 11.2646484375  C 13.3235677083334 12.4137369791667  12.4137369791666 13.3235677083333  11.2646484375 13.994140625  C 10.1155598958334 14.6647135416667  8.86067708333337 15  7.5 15  C 6.13932291666663 15  4.88444010416663 14.6647135416667  3.7353515625 13.994140625  C 2.58626302083337 13.3235677083333  1.67643229166663 12.4137369791667  1.005859375 11.2646484375  C 0.335286458333371 10.1155598958333  0 8.86067708333333  0 7.5  C 0 6.13932291666666  0.335286458333371 4.88444010416667  1.005859375 3.7353515625  C 1.67643229166663 2.58626302083333  2.58626302083337 1.67643229166667  3.7353515625 1.005859375  C 4.88444010416663 0.335286458333332  6.13932291666663 0  7.5 0  C 8.86067708333337 0  10.1155598958334 0.335286458333332  11.2646484375 1.005859375  C 12.4137369791666 1.67643229166667  13.3235677083334 2.58626302083333  13.994140625 3.7353515625  Z " fill-rule="nonzero" fill="#ffffff" stroke="none" transform="matrix(1 0 0 1 560 16 )" />
  </g>
</svg>