<?xml version="1.0" encoding="utf-8"?>
<svg version="1.1" xmlns:xlink="http://www.w3.org/1999/xlink" width="15px" height="15px" xmlns="http://www.w3.org/2000/svg">
  <g transform="matrix(1 0 0 1 -655 -17 )">
    <path d="M 11.689453125 8.564453125  C 11.8131510416666 8.44075520833333  11.875 8.29427083333333  11.875 8.125  L 11.875 6.875  C 11.875 6.70572916666667  11.8131510416666 6.55924479166667  11.689453125 6.435546875  C 11.5657552083334 6.31184895833333  11.4192708333334 6.25  11.25 6.25  L 3.75 6.25  C 3.58072916666663 6.25  3.43424479166663 6.31184895833333  3.310546875 6.435546875  C 3.18684895833337 6.55924479166667  3.125 6.70572916666667  3.125 6.875  L 3.125 8.125  C 3.125 8.29427083333333  3.18684895833337 8.44075520833333  3.310546875 8.564453125  C 3.43424479166663 8.68815104166667  3.58072916666663 8.75  3.75 8.75  L 11.25 8.75  C 11.4192708333334 8.75  11.5657552083334 8.68815104166667  11.689453125 8.564453125  Z M 13.994140625 3.7353515625  C 14.6647135416666 4.88444010416667  15 6.13932291666666  15 7.5  C 15 8.86067708333333  14.6647135416666 10.1155598958333  13.994140625 11.2646484375  C 13.3235677083334 12.4137369791667  12.4137369791666 13.3235677083333  11.2646484375 13.994140625  C 10.1155598958334 14.6647135416667  8.86067708333337 15  7.5 15  C 6.13932291666663 15  4.88444010416663 14.6647135416667  3.7353515625 13.994140625  C 2.58626302083337 13.3235677083333  1.67643229166663 12.4137369791667  1.005859375 11.2646484375  C 0.335286458333371 10.1155598958333  0 8.86067708333333  0 7.5  C 0 6.13932291666666  0.335286458333371 4.88444010416667  1.005859375 3.7353515625  C 1.67643229166663 2.58626302083333  2.58626302083337 1.67643229166667  3.7353515625 1.005859375  C 4.88444010416663 0.335286458333332  6.13932291666663 0  7.5 0  C 8.86067708333337 0  10.1155598958334 0.335286458333332  11.2646484375 1.005859375  C 12.4137369791666 1.67643229166667  13.3235677083334 2.58626302083333  13.994140625 3.7353515625  Z " fill-rule="nonzero" fill="#ffffff" stroke="none" transform="matrix(1 0 0 1 655 17 )" />
  </g>
</svg>