<?xml version="1.0" encoding="utf-8"?>
<svg version="1.1" xmlns:xlink="http://www.w3.org/1999/xlink" width="20px" height="20px" xmlns="http://www.w3.org/2000/svg">
  <g transform="matrix(1 0 0 1 -479 -95 )">
    <path d="M 16.4192708333333 11.4192708333333  C 16.5842013888889 11.2543402777778  16.6666666666667 11.0590277777778  16.6666666666667 10.8333333333333  L 16.6666666666667 9.16666666666667  C 16.6666666666667 8.94097222222223  16.5842013888889 8.74565972222223  16.4192708333333 8.58072916666667  C 16.2543402777778 8.41579861111111  16.0590277777778 8.33333333333333  15.8333333333333 8.33333333333333  L 11.6666666666667 8.33333333333333  L 11.6666666666667 4.16666666666667  C 11.6666666666667 3.94097222222223  11.5842013888889 3.74565972222223  11.4192708333333 3.58072916666667  C 11.2543402777778 3.41579861111111  11.0590277777778 3.33333333333333  10.8333333333333 3.33333333333333  L 9.16666666666669 3.33333333333333  C 8.94097222222223 3.33333333333333  8.74565972222223 3.41579861111111  8.58072916666669 3.58072916666667  C 8.41579861111109 3.74565972222223  8.33333333333331 3.94097222222223  8.33333333333331 4.16666666666667  L 8.33333333333331 8.33333333333333  L 4.16666666666669 8.33333333333333  C 3.94097222222223 8.33333333333333  3.74565972222223 8.41579861111111  3.58072916666669 8.58072916666667  C 3.41579861111109 8.74565972222223  3.33333333333331 8.94097222222223  3.33333333333331 9.16666666666667  L 3.33333333333331 10.8333333333333  C 3.33333333333331 11.0590277777778  3.41579861111109 11.2543402777778  3.58072916666669 11.4192708333333  C 3.74565972222223 11.5842013888889  3.94097222222223 11.6666666666667  4.16666666666669 11.6666666666667  L 8.33333333333331 11.6666666666667  L 8.33333333333331 15.8333333333333  C 8.33333333333331 16.0590277777778  8.41579861111109 16.2543402777778  8.58072916666669 16.4192708333333  C 8.74565972222223 16.5842013888889  8.94097222222223 16.6666666666667  9.16666666666669 16.6666666666667  L 10.8333333333333 16.6666666666667  C 11.0590277777778 16.6666666666667  11.2543402777778 16.5842013888889  11.4192708333333 16.4192708333333  C 11.5842013888889 16.2543402777778  11.6666666666667 16.0590277777778  11.6666666666667 15.8333333333333  L 11.6666666666667 11.6666666666667  L 15.8333333333333 11.6666666666667  C 16.0590277777778 11.6666666666667  16.2543402777778 11.5842013888889  16.4192708333333 11.4192708333333  Z M 18.8997395833333 1.10026041666667  C 19.6332465277778 1.83376736111111  20 2.71701388888889  20 3.75  L 20 16.25  C 20 17.2829861111111  19.6332465277778 18.1662326388889  18.8997395833333 18.8997395833333  C 18.1662326388889 19.6332465277778  17.2829861111111 20  16.25 20  L 3.75 20  C 2.71701388888891 20  1.83376736111109 19.6332465277778  1.10026041666669 18.8997395833333  C 0.366753472222229 18.1662326388889  0 17.2829861111111  0 16.25  L 0 3.75  C 0 2.71701388888889  0.366753472222229 1.83376736111111  1.10026041666669 1.10026041666667  C 1.83376736111109 0.366753472222229  2.71701388888891 0  3.75 0  L 16.25 0  C 17.2829861111111 0  18.1662326388889 0.366753472222229  18.8997395833333 1.10026041666667  Z " fill-rule="nonzero" fill="#169bd5" stroke="none" transform="matrix(1 0 0 1 479 95 )" />
  </g>
</svg>