<?xml version="1.0" encoding="utf-8"?>
<svg version="1.1" xmlns:xlink="http://www.w3.org/1999/xlink" width="15px" height="15px" xmlns="http://www.w3.org/2000/svg">
  <g transform="matrix(1 0 0 1 -741 -137 )">
    <path d="M 9.19921875 9.19921875  C 9.98948317307696 8.40895432692307  10.3846153846154 7.45793269230769  10.3846153846154 6.34615384615384  C 10.3846153846154 5.234375  9.98948317307696 4.28335336538463  9.19921875 3.49308894230769  C 8.40895432692304 2.70282451923076  7.45793269230774 2.30769230769231  6.34615384615387 2.30769230769231  C 5.234375 2.30769230769231  4.28335336538464 2.70282451923076  3.49308894230774 3.49308894230769  C 2.70282451923077 4.28335336538463  2.30769230769226 5.234375  2.30769230769226 6.34615384615384  C 2.30769230769226 7.45793269230769  2.70282451923077 8.40895432692307  3.49308894230774 9.19921875  C 4.28335336538464 9.98948317307693  5.234375 10.3846153846154  6.34615384615387 10.3846153846154  C 7.45793269230774 10.3846153846154  8.40895432692304 9.98948317307693  9.19921875 9.19921875  Z M 14.6664663461539 13.0348557692308  C 14.8888221153846 13.2572115384615  15 13.5276442307692  15 13.8461538461538  C 15 14.1586538461538  14.8858173076923 14.4290865384615  14.657451923077 14.6574519230769  C 14.4290865384615 14.8858173076923  14.1586538461539 15  13.8461538461539 15  C 13.5216346153846 15  13.251201923077 14.8858173076923  13.0348557692308 14.6574519230769  L 9.94290865384613 11.5745192307692  C 8.8671875 12.3197115384615  7.66826923076923 12.6923076923077  6.34615384615387 12.6923076923077  C 5.48677884615387 12.6923076923077  4.66496394230774 12.5255408653846  3.88070913461536 12.1920072115385  C 3.09645432692304 11.8584735576923  2.42037259615387 11.4077524038462  1.85246394230774 10.83984375  C 1.28455528846149 10.2719350961538  0.833834134615358 9.59585336538463  0.500300480769226 8.81159855769231  C 0.166766826923038 8.02734375  0 7.20552884615384  0 6.34615384615384  C 0 5.48677884615384  0.166766826923038 4.66496394230769  0.500300480769226 3.88070913461537  C 0.833834134615358 3.09645432692307  1.28455528846149 2.42037259615384  1.85246394230774 1.85246394230769  C 2.42037259615387 1.28455528846156  3.09645432692304 0.833834134615373  3.88070913461536 0.500300480769241  C 4.66496394230774 0.166766826923066  5.48677884615387 0  6.34615384615387 0  C 7.20552884615387 0  8.02734375 0.166766826923066  8.81159855769226 0.500300480769241  C 9.59585336538464 0.833834134615373  10.2719350961539 1.28455528846156  10.83984375 1.85246394230769  C 11.4077524038461 2.42037259615384  11.8584735576923 3.09645432692307  12.1920072115385 3.88070913461537  C 12.5255408653846 4.66496394230769  12.6923076923077 5.48677884615384  12.6923076923077 6.34615384615384  C 12.6923076923077 7.66826923076924  12.3197115384615 8.8671875  11.5745192307692 9.94290865384616  L 14.6664663461539 13.0348557692308  Z " fill-rule="nonzero" fill="#ffffff" stroke="none" transform="matrix(1 0 0 1 741 137 )" />
  </g>
</svg>