<?xml version="1.0" encoding="utf-8"?>
<svg version="1.1" xmlns:xlink="http://www.w3.org/1999/xlink" width="15px" height="15px" xmlns="http://www.w3.org/2000/svg">
  <g transform="matrix(1 0 0 1 -832 -136 )">
    <path d="M 7.5 11.62109375  C 7.66927083333337 11.62109375  7.81575520833337 11.5592447916667  7.939453125 11.435546875  L 12.373046875 7.001953125  C 12.4967447916667 6.87825520833334  12.55859375 6.73177083333334  12.55859375 6.5625  C 12.55859375 6.39322916666666  12.4967447916667 6.24674479166666  12.373046875 6.123046875  L 11.376953125 5.126953125  C 11.2532552083334 5.00325520833334  11.1067708333334 4.94140624999999  10.9375 4.94140624999999  C 10.7682291666667 4.94140624999999  10.6217447916667 5.00325520833334  10.498046875 5.126953125  L 7.5 8.12500000000001  L 4.501953125 5.126953125  C 4.37825520833326 5.00325520833334  4.23177083333326 4.94140624999999  4.0625 4.94140624999999  C 3.89322916666663 4.94140624999999  3.74674479166663 5.00325520833334  3.623046875 5.126953125  L 2.626953125 6.123046875  C 2.50325520833326 6.24674479166666  2.44140625 6.39322916666666  2.44140625 6.5625  C 2.44140625 6.73177083333334  2.50325520833326 6.87825520833334  2.626953125 7.001953125  L 7.060546875 11.435546875  C 7.18424479166663 11.5592447916667  7.33072916666663 11.62109375  7.5 11.62109375  Z M 13.994140625 3.7353515625  C 14.6647135416667 4.88444010416666  15 6.13932291666666  15 7.5  C 15 8.86067708333334  14.6647135416667 10.1155598958333  13.994140625 11.2646484375  C 13.3235677083334 12.4137369791667  12.4137369791666 13.3235677083333  11.2646484375 13.994140625  C 10.1155598958334 14.6647135416667  8.86067708333326 15  7.5 15  C 6.13932291666674 15  4.88444010416663 14.6647135416667  3.7353515625 13.994140625  C 2.58626302083337 13.3235677083333  1.67643229166663 12.4137369791667  1.005859375 11.2646484375  C 0.335286458333258 10.1155598958333  0 8.86067708333334  0 7.5  C 0 6.13932291666666  0.335286458333258 4.88444010416666  1.005859375 3.7353515625  C 1.67643229166663 2.58626302083334  2.58626302083337 1.67643229166666  3.7353515625 1.00585937500001  C 4.88444010416663 0.335286458333336  6.13932291666674 0  7.5 0  C 8.86067708333326 0  10.1155598958334 0.335286458333336  11.2646484375 1.00585937500001  C 12.4137369791666 1.67643229166666  13.3235677083334 2.58626302083334  13.994140625 3.7353515625  Z " fill-rule="nonzero" fill="#ffffff" stroke="none" transform="matrix(1 0 0 1 832 136 )" />
  </g>
</svg>