<?xml version="1.0" encoding="utf-8"?>
<svg version="1.1" xmlns:xlink="http://www.w3.org/1999/xlink" width="20px" height="18px" xmlns="http://www.w3.org/2000/svg">
  <g transform="matrix(1 0 0 1 -15 -19 )">
    <path d="M 19.7526041666667 14.6671875  C 19.9175347222222 14.8453125  20 15.05625  20 15.3  L 20 17.1  C 20 17.34375  19.9175347222222 17.5546875  19.7526041666667 17.7328125  C 19.5876736111111 17.9109375  19.3923611111111 18  19.1666666666667 18  L 0.833333333333334 18  C 0.607638888888889 18  0.412326388888889 17.9109375  0.247395833333334 17.7328125  C 0.0824652777777786 17.5546875  0 17.34375  0 17.1  L 0 15.3  C 0 15.05625  0.0824652777777786 14.8453125  0.247395833333334 14.6671875  C 0.412326388888889 14.4890625  0.607638888888889 14.4  0.833333333333334 14.4  L 19.1666666666667 14.4  C 19.3923611111111 14.4  19.5876736111111 14.4890625  19.7526041666667 14.6671875  Z M 19.7526041666667 7.4671875  C 19.9175347222222 7.6453125  20 7.85625  20 8.1  L 20 9.9  C 20 10.14375  19.9175347222222 10.3546875  19.7526041666667 10.5328125  C 19.5876736111111 10.7109375  19.3923611111111 10.8  19.1666666666667 10.8  L 0.833333333333334 10.8  C 0.607638888888889 10.8  0.412326388888889 10.7109375  0.247395833333334 10.5328125  C 0.0824652777777786 10.3546875  0 10.14375  0 9.9  L 0 8.1  C 0 7.85625  0.0824652777777786 7.6453125  0.247395833333334 7.4671875  C 0.412326388888889 7.2890625  0.607638888888889 7.2  0.833333333333334 7.2  L 19.1666666666667 7.2  C 19.3923611111111 7.2  19.5876736111111 7.2890625  19.7526041666667 7.4671875  Z M 19.7526041666667 0.2671875  C 19.9175347222222 0.445312499999998  20 0.656249999999998  20 0.9  L 20 2.7  C 20 2.94375  19.9175347222222 3.1546875  19.7526041666667 3.3328125  C 19.5876736111111 3.5109375  19.3923611111111 3.6  19.1666666666667 3.6  L 0.833333333333334 3.6  C 0.607638888888889 3.6  0.412326388888889 3.5109375  0.247395833333334 3.3328125  C 0.0824652777777786 3.1546875  0 2.94375  0 2.7  L 0 0.9  C 0 0.656249999999998  0.0824652777777786 0.445312499999998  0.247395833333334 0.2671875  C 0.412326388888889 0.0890624999999989  0.607638888888889 0  0.833333333333334 0  L 19.1666666666667 0  C 19.3923611111111 0  19.5876736111111 0.0890624999999989  19.7526041666667 0.2671875  Z " fill-rule="nonzero" fill="#999999" stroke="none" transform="matrix(1 0 0 1 15 19 )" />
  </g>
</svg>