<?xml version="1.0" encoding="utf-8"?>
<svg version="1.1" xmlns:xlink="http://www.w3.org/1999/xlink" width="15px" height="15px" xmlns="http://www.w3.org/2000/svg">
  <g transform="matrix(1 0 0 1 -174 -135 )">
    <path d="M 1.15384615384616 11.5178571428571  L 1.15384615384616 13.9285714285714  L 3.75 13.9285714285714  L 3.75 11.5178571428571  L 1.15384615384616 11.5178571428571  Z M 4.32692307692307 11.5178571428571  L 4.32692307692307 13.9285714285714  L 7.21153846153845 13.9285714285714  L 7.21153846153845 11.5178571428571  L 4.32692307692307 11.5178571428571  Z M 1.15384615384616 8.30357142857144  L 1.15384615384616 10.9821428571429  L 3.75 10.9821428571429  L 3.75 8.30357142857144  L 1.15384615384616 8.30357142857144  Z M 4.32692307692307 8.30357142857144  L 4.32692307692307 10.9821428571429  L 7.21153846153845 10.9821428571429  L 7.21153846153845 8.30357142857144  L 4.32692307692307 8.30357142857144  Z M 1.15384615384616 5.35714285714286  L 1.15384615384616 7.76785714285714  L 3.75 7.76785714285714  L 3.75 5.35714285714286  L 1.15384615384616 5.35714285714286  Z M 7.78846153846155 11.5178571428571  L 7.78846153846155 13.9285714285714  L 10.6730769230769 13.9285714285714  L 10.6730769230769 11.5178571428571  L 7.78846153846155 11.5178571428571  Z M 4.32692307692307 5.35714285714286  L 4.32692307692307 7.76785714285714  L 7.21153846153845 7.76785714285714  L 7.21153846153845 5.35714285714286  L 4.32692307692307 5.35714285714286  Z M 11.25 11.5178571428571  L 11.25 13.9285714285714  L 13.8461538461538 13.9285714285714  L 13.8461538461538 11.5178571428571  L 11.25 11.5178571428571  Z M 7.78846153846155 8.30357142857144  L 7.78846153846155 10.9821428571429  L 10.6730769230769 10.9821428571429  L 10.6730769230769 8.30357142857144  L 7.78846153846155 8.30357142857144  Z M 4.52974759615384 3.93833705357143  C 4.58683894230768 3.88532366071429  4.61538461538461 3.82254464285714  4.61538461538461 3.75  L 4.61538461538461 1.33928571428572  C 4.61538461538461 1.26674107142857  4.58683894230768 1.20396205357143  4.52974759615384 1.15094866071428  C 4.47265625 1.09793526785714  4.40504807692307 1.07142857142857  4.32692307692307 1.07142857142857  L 3.75 1.07142857142857  C 3.671875 1.07142857142857  3.60426682692307 1.09793526785714  3.54717548076923 1.15094866071428  C 3.49008413461539 1.20396205357143  3.46153846153845 1.26674107142857  3.46153846153845 1.33928571428572  L 3.46153846153845 3.75  C 3.46153846153845 3.82254464285714  3.49008413461539 3.88532366071429  3.54717548076923 3.93833705357143  C 3.60426682692307 3.99135044642857  3.671875 4.01785714285714  3.75 4.01785714285714  L 4.32692307692307 4.01785714285714  C 4.40504807692307 4.01785714285714  4.47265625 3.99135044642857  4.52974759615384 3.93833705357143  Z M 11.25 8.30357142857144  L 11.25 10.9821428571429  L 13.8461538461538 10.9821428571429  L 13.8461538461538 8.30357142857144  L 11.25 8.30357142857144  Z M 7.78846153846155 5.35714285714286  L 7.78846153846155 7.76785714285714  L 10.6730769230769 7.76785714285714  L 10.6730769230769 5.35714285714286  L 7.78846153846155 5.35714285714286  Z M 11.25 5.35714285714286  L 11.25 7.76785714285714  L 13.8461538461538 7.76785714285714  L 13.8461538461538 5.35714285714286  L 11.25 5.35714285714286  Z M 11.4528245192308 3.93833705357143  C 11.5099158653846 3.88532366071429  11.5384615384615 3.82254464285714  11.5384615384615 3.75  L 11.5384615384615 1.33928571428572  C 11.5384615384615 1.26674107142857  11.5099158653846 1.20396205357143  11.4528245192308 1.15094866071428  C 11.3957331730769 1.09793526785714  11.328125 1.07142857142857  11.25 1.07142857142857  L 10.6730769230769 1.07142857142857  C 10.5949519230769 1.07142857142857  10.52734375 1.09793526785714  10.4702524038462 1.15094866071428  C 10.4131610576923 1.20396205357143  10.3846153846154 1.26674107142857  10.3846153846154 1.33928571428572  L 10.3846153846154 3.75  C 10.3846153846154 3.82254464285714  10.4131610576923 3.88532366071429  10.4702524038462 3.93833705357143  C 10.52734375 3.99135044642857  10.5949519230769 4.01785714285714  10.6730769230769 4.01785714285714  L 11.25 4.01785714285714  C 11.328125 4.01785714285714  11.3957331730769 3.99135044642857  11.4528245192308 3.93833705357143  Z M 14.6574519230769 2.4609375  C 14.8858173076923 2.67299107142857  15 2.92410714285714  15 3.21428571428572  L 15 13.9285714285714  C 15 14.21875  14.8858173076923 14.4698660714286  14.6574519230769 14.6819196428571  C 14.4290865384615 14.8939732142857  14.1586538461538 15  13.8461538461538 15  L 1.15384615384616 15  C 0.84134615384616 15  0.570913461538453 14.8939732142857  0.342548076923066 14.6819196428571  C 0.114182692307679 14.4698660714286  0 14.21875  0 13.9285714285714  L 0 3.21428571428572  C 0 2.92410714285714  0.114182692307679 2.67299107142857  0.342548076923066 2.4609375  C 0.570913461538453 2.24888392857143  0.84134615384616 2.14285714285714  1.15384615384616 2.14285714285714  L 2.30769230769232 2.14285714285714  L 2.30769230769232 1.33928571428572  C 2.30769230769232 0.970982142857139  2.44891826923077 0.655691964285708  2.73137019230768 0.393415178571431  C 3.01382211538461 0.131138392857139  3.35336538461539 0  3.75 0  L 4.32692307692307 0  C 4.72355769230768 0  5.06310096153845 0.131138392857139  5.34555288461539 0.393415178571431  C 5.62800480769232 0.655691964285708  5.76923076923077 0.970982142857139  5.76923076923077 1.33928571428572  L 5.76923076923077 2.14285714285714  L 9.23076923076923 2.14285714285714  L 9.23076923076923 1.33928571428572  C 9.23076923076923 0.970982142857139  9.37199519230768 0.655691964285708  9.65444711538461 0.393415178571431  C 9.93689903846155 0.131138392857139  10.2764423076923 0  10.6730769230769 0  L 11.25 0  C 11.6466346153846 0  11.9861778846154 0.131138392857139  12.2686298076923 0.393415178571431  C 12.5510817307692 0.655691964285708  12.6923076923077 0.970982142857139  12.6923076923077 1.33928571428572  L 12.6923076923077 2.14285714285714  L 13.8461538461538 2.14285714285714  C 14.1586538461538 2.14285714285714  14.4290865384615 2.24888392857143  14.6574519230769 2.4609375  Z " fill-rule="nonzero" fill="#cccccc" stroke="none" transform="matrix(1 0 0 1 174 135 )" />
  </g>
</svg>