<?xml version="1.0" encoding="utf-8"?>
<svg version="1.1" xmlns:xlink="http://www.w3.org/1999/xlink" width="10px" height="15px" xmlns="http://www.w3.org/2000/svg">
  <g transform="matrix(1 0 0 1 -234 -179 )">
    <path d="M 9.82817869415808 0.901803607214418  C 9.94272623138602 1.00200400801603  10 1.11723446893788  10 1.24749498997997  C 10 1.37775551102206  9.94272623138602 1.49298597194388  9.82817869415808 1.59318637274549  L 3.07560137457045 7.5  L 9.82817869415808 13.4068136272545  C 9.94272623138602 13.5070140280561  10 13.6222444889779  10 13.75250501002  C 10 13.8827655310621  9.94272623138602 13.997995991984  9.82817869415808 14.0981963927856  L 8.96907216494844 14.8496993987976  C 8.85452462772051 14.9498997995992  8.72279495990836 15  8.57388316151201 15  C 8.4249713631157 15  8.29324169530355 14.9498997995992  8.17869415807559 14.8496993987976  L 0.171821305841917 7.84569138276552  C 0.0572737686139817 7.74549098196391  0 7.63026052104209  0 7.5  C 0 7.36973947895791  0.0572737686139817 7.25450901803606  0.171821305841917 7.15430861723448  L 8.17869415807559 0.150300601202417  C 8.29324169530355 0.0501002004008058  8.4249713631157 0  8.57388316151201 0  C 8.72279495990836 0  8.85452462772051 0.0501002004008058  8.96907216494844 0.150300601202417  L 9.82817869415808 0.901803607214418  Z " fill-rule="nonzero" fill="#cccccc" stroke="none" transform="matrix(1 0 0 1 234 179 )" />
  </g>
</svg>