<?xml version="1.0" encoding="utf-8"?>
<svg version="1.1" xmlns:xlink="http://www.w3.org/1999/xlink" width="15px" height="15px" xmlns="http://www.w3.org/2000/svg">
  <g transform="matrix(1 0 0 1 -898 -59 )">
    <path d="M 11.1572265625 6.3427734375  C 11.2190755208334 6.40462239583333  11.25 6.47786458333333  11.25 6.5625  L 11.25 8.4375  C 11.25 8.52213541666667  11.2190755208334 8.59537760416667  11.1572265625 8.6572265625  C 11.0953776041666 8.71907552083333  11.0221354166666 8.75  10.9375 8.75  L 7.5 8.75  L 7.5 10.625  C 7.5 10.7161458333333  7.470703125 10.791015625  7.412109375 10.849609375  C 7.353515625 10.908203125  7.27864583333337 10.9375  7.1875 10.9375  C 7.109375 10.9375  7.03125 10.9049479166667  6.953125 10.83984375  L 3.837890625 7.724609375  C 3.779296875 7.666015625  3.75 7.59114583333333  3.75 7.5  C 3.75 7.40885416666667  3.779296875 7.333984375  3.837890625 7.275390625  L 6.962890625 4.150390625  C 7.021484375 4.091796875  7.09635416666663 4.0625  7.1875 4.0625  C 7.27213541666663 4.0625  7.34537760416663 4.09342447916666  7.4072265625 4.1552734375  C 7.46907552083337 4.21712239583333  7.5 4.29036458333333  7.5 4.375  L 7.5 6.25  L 10.9375 6.25  C 11.0221354166666 6.25  11.0953776041666 6.28092447916667  11.1572265625 6.3427734375  Z M 12.099609375 10.166015625  C 12.5748697916666 9.35221354166666  12.8125 8.46354166666667  12.8125 7.5  C 12.8125 6.53645833333333  12.5748697916666 5.64778645833334  12.099609375 4.833984375  C 11.6243489583334 4.02018229166666  10.9798177083334 3.37565104166666  10.166015625 2.900390625  C 9.35221354166663 2.42513020833334  8.46354166666663 2.1875  7.5 2.1875  C 6.53645833333337 2.1875  5.64778645833337 2.42513020833334  4.833984375 2.900390625  C 4.02018229166663 3.37565104166666  3.37565104166663 4.02018229166666  2.900390625 4.833984375  C 2.42513020833337 5.64778645833334  2.1875 6.53645833333333  2.1875 7.5  C 2.1875 8.46354166666667  2.42513020833337 9.35221354166666  2.900390625 10.166015625  C 3.37565104166663 10.9798177083333  4.02018229166663 11.6243489583333  4.833984375 12.099609375  C 5.64778645833337 12.5748697916667  6.53645833333337 12.8125  7.5 12.8125  C 8.46354166666663 12.8125  9.35221354166663 12.5748697916667  10.166015625 12.099609375  C 10.9798177083334 11.6243489583333  11.6243489583334 10.9798177083333  12.099609375 10.166015625  Z M 13.994140625 3.7353515625  C 14.6647135416666 4.88444010416666  15 6.13932291666666  15 7.5  C 15 8.86067708333333  14.6647135416666 10.1155598958333  13.994140625 11.2646484375  C 13.3235677083334 12.4137369791667  12.4137369791666 13.3235677083333  11.2646484375 13.994140625  C 10.1155598958334 14.6647135416667  8.86067708333337 15  7.5 15  C 6.13932291666663 15  4.88444010416663 14.6647135416667  3.7353515625 13.994140625  C 2.58626302083337 13.3235677083333  1.67643229166663 12.4137369791667  1.005859375 11.2646484375  C 0.335286458333371 10.1155598958333  0 8.86067708333333  0 7.5  C 0 6.13932291666666  0.335286458333371 4.88444010416666  1.005859375 3.7353515625  C 1.67643229166663 2.58626302083334  2.58626302083337 1.67643229166666  3.7353515625 1.005859375  C 4.88444010416663 0.335286458333329  6.13932291666663 0  7.5 0  C 8.86067708333337 0  10.1155598958334 0.335286458333329  11.2646484375 1.005859375  C 12.4137369791666 1.67643229166666  13.3235677083334 2.58626302083334  13.994140625 3.7353515625  Z " fill-rule="nonzero" fill="#ffffff" stroke="none" transform="matrix(1 0 0 1 898 59 )" />
  </g>
</svg>