<?xml version="1.0" encoding="utf-8"?>
<svg version="1.1" xmlns:xlink="http://www.w3.org/1999/xlink" width="12px" height="12px" viewBox="189 342  12 12" xmlns="http://www.w3.org/2000/svg">
  <path d="M 195 342  C 198.36 342  201 344.64  201 348  C 201 351.36  198.36 354  195 354  C 191.64 354  189 351.36  189 348  C 189 344.64  191.64 342  195 342  Z " fill-rule="nonzero" fill="#ffffff" stroke="none" />
  <path d="M 195 342.5  C 198.08 342.5  200.5 344.92  200.5 348  C 200.5 351.08  198.08 353.5  195 353.5  C 191.92 353.5  189.5 351.08  189.5 348  C 189.5 344.92  191.92 342.5  195 342.5  Z " stroke-width="1" stroke="#797979" fill="none" />
  <path d="M 195 351  C 193.32 351  192 349.68  192 348  C 192 346.32  193.32 345  195 345  C 196.68 345  198 346.32  198 348  C 198 349.68  196.68 351  195 351  " fill-rule="nonzero" fill="#797979" stroke="none" />
</svg>