<?xml version="1.0" encoding="utf-8"?>
<svg version="1.1" xmlns:xlink="http://www.w3.org/1999/xlink" width="12px" height="12px" viewBox="264 342  12 12" xmlns="http://www.w3.org/2000/svg">
  <path d="M 270 342  C 273.36 342  276 344.64  276 348  C 276 351.36  273.36 354  270 354  C 266.64 354  264 351.36  264 348  C 264 344.64  266.64 342  270 342  Z " fill-rule="nonzero" fill="#ffffff" stroke="none" />
  <path d="M 270 342.5  C 273.08 342.5  275.5 344.92  275.5 348  C 275.5 351.08  273.08 353.5  270 353.5  C 266.92 353.5  264.5 351.08  264.5 348  C 264.5 344.92  266.92 342.5  270 342.5  Z " stroke-width="1" stroke="#797979" fill="none" />
  <path d="M 270 351  C 268.32 351  267 349.68  267 348  C 267 346.32  268.32 345  270 345  C 271.68 345  273 346.32  273 348  C 273 349.68  271.68 351  270 351  " fill-rule="nonzero" fill="#797979" stroke="none" />
</svg>