<?xml version="1.0" encoding="utf-8"?>
<svg version="1.1" xmlns:xlink="http://www.w3.org/1999/xlink" width="12px" height="12px" viewBox="264 446  12 12" xmlns="http://www.w3.org/2000/svg">
  <path d="M 270 446  C 273.36 446  276 448.64  276 452  C 276 455.36  273.36 458  270 458  C 266.64 458  264 455.36  264 452  C 264 448.64  266.64 446  270 446  Z " fill-rule="nonzero" fill="#ffffff" stroke="none" />
  <path d="M 270 446.5  C 273.08 446.5  275.5 448.92  275.5 452  C 275.5 455.08  273.08 457.5  270 457.5  C 266.92 457.5  264.5 455.08  264.5 452  C 264.5 448.92  266.92 446.5  270 446.5  Z " stroke-width="1" stroke="#797979" fill="none" />
  <path d="M 270 455  C 268.32 455  267 453.68  267 452  C 267 450.32  268.32 449  270 449  C 271.68 449  273 450.32  273 452  C 273 453.68  271.68 455  270 455  " fill-rule="nonzero" fill="#797979" stroke="none" />
</svg>