<?xml version="1.0" encoding="utf-8"?>
<svg version="1.1" xmlns:xlink="http://www.w3.org/1999/xlink" width="12px" height="12px" viewBox="189 610  12 12" xmlns="http://www.w3.org/2000/svg">
  <path d="M 195 610  C 198.36 610  201 612.64  201 616  C 201 619.36  198.36 622  195 622  C 191.64 622  189 619.36  189 616  C 189 612.64  191.64 610  195 610  Z " fill-rule="nonzero" fill="#ffffff" stroke="none" />
  <path d="M 195 610.5  C 198.08 610.5  200.5 612.92  200.5 616  C 200.5 619.08  198.08 621.5  195 621.5  C 191.92 621.5  189.5 619.08  189.5 616  C 189.5 612.92  191.92 610.5  195 610.5  Z " stroke-width="1" stroke="#797979" fill="none" />
  <path d="M 195 619  C 193.32 619  192 617.68  192 616  C 192 614.32  193.32 613  195 613  C 196.68 613  198 614.32  198 616  C 198 617.68  196.68 619  195 619  " fill-rule="nonzero" fill="#797979" stroke="none" />
</svg>