<?xml version="1.0" encoding="utf-8"?>
<svg version="1.1" xmlns:xlink="http://www.w3.org/1999/xlink" width="12px" height="12px" viewBox="189 653  12 12" xmlns="http://www.w3.org/2000/svg">
  <path d="M 195 653  C 198.36 653  201 655.64  201 659  C 201 662.36  198.36 665  195 665  C 191.64 665  189 662.36  189 659  C 189 655.64  191.64 653  195 653  Z " fill-rule="nonzero" fill="#ffffff" stroke="none" />
  <path d="M 195 653.5  C 198.08 653.5  200.5 655.92  200.5 659  C 200.5 662.08  198.08 664.5  195 664.5  C 191.92 664.5  189.5 662.08  189.5 659  C 189.5 655.92  191.92 653.5  195 653.5  Z " stroke-width="1" stroke="#797979" fill="none" />
  <path d="M 195 662  C 193.32 662  192 660.68  192 659  C 192 657.32  193.32 656  195 656  C 196.68 656  198 657.32  198 659  C 198 660.68  196.68 662  195 662  " fill-rule="nonzero" fill="#797979" stroke="none" />
</svg>