<?xml version="1.0" encoding="utf-8"?>
<svg version="1.1" xmlns:xlink="http://www.w3.org/1999/xlink" width="12px" height="12px" viewBox="189 700  12 12" xmlns="http://www.w3.org/2000/svg">
  <path d="M 195 700  C 198.36 700  201 702.64  201 706  C 201 709.36  198.36 712  195 712  C 191.64 712  189 709.36  189 706  C 189 702.64  191.64 700  195 700  Z " fill-rule="nonzero" fill="#ffffff" stroke="none" />
  <path d="M 195 700.5  C 198.08 700.5  200.5 702.92  200.5 706  C 200.5 709.08  198.08 711.5  195 711.5  C 191.92 711.5  189.5 709.08  189.5 706  C 189.5 702.92  191.92 700.5  195 700.5  Z " stroke-width="1" stroke="#797979" fill="none" />
  <path d="M 195 709  C 193.32 709  192 707.68  192 706  C 192 704.32  193.32 703  195 703  C 196.68 703  198 704.32  198 706  C 198 707.68  196.68 709  195 709  " fill-rule="nonzero" fill="#797979" stroke="none" />
</svg>