<?xml version="1.0" encoding="utf-8"?>
<svg version="1.1" xmlns:xlink="http://www.w3.org/1999/xlink" width="12px" height="12px" viewBox="264 791  12 12" xmlns="http://www.w3.org/2000/svg">
  <path d="M 270 791  C 273.36 791  276 793.64  276 797  C 276 800.36  273.36 803  270 803  C 266.64 803  264 800.36  264 797  C 264 793.64  266.64 791  270 791  Z " fill-rule="nonzero" fill="#ffffff" stroke="none" />
  <path d="M 270 791.5  C 273.08 791.5  275.5 793.92  275.5 797  C 275.5 800.08  273.08 802.5  270 802.5  C 266.92 802.5  264.5 800.08  264.5 797  C 264.5 793.92  266.92 791.5  270 791.5  Z " stroke-width="1" stroke="#797979" fill="none" />
  <path d="M 270 800  C 268.32 800  267 798.68  267 797  C 267 795.32  268.32 794  270 794  C 271.68 794  273 795.32  273 797  C 273 798.68  271.68 800  270 800  " fill-rule="nonzero" fill="#797979" stroke="none" />
</svg>