<?xml version="1.0" encoding="utf-8"?>
<svg version="1.1" xmlns:xlink="http://www.w3.org/1999/xlink" width="20px" height="20px" xmlns="http://www.w3.org/2000/svg">
  <g transform="matrix(1 0 0 1 -443 -65 )">
    <path d="M 19.55078125 11.7903645833333  C 19.6332465277778 11.8728298611111  19.6744791666666 11.9704861111111  19.6744791666666 12.0833333333333  C 19.6744791666666 12.1267361111111  19.6701388888889 12.1571180555555  19.6614583333334 12.1744791666667  C 19.1059027777778 14.5008680555555  17.9427083333334 16.38671875  16.171875 17.83203125  C 14.4010416666666 19.27734375  12.3263888888889 20  9.94791666666669 20  C 8.68055555555554 20  7.45442708333331 19.7612847222222  6.26953125 19.2838541666667  C 5.08463541666669 18.8064236111111  4.02777777777777 18.125  3.09895833333331 17.2395833333333  L 1.41927083333331 18.9192708333333  C 1.25434027777777 19.0842013888889  1.05902777777777 19.1666666666667  0.833333333333314 19.1666666666667  C 0.607638888888914 19.1666666666667  0.412326388888914 19.0842013888889  0.247395833333314 18.9192708333333  C 0.0824652777777715 18.7543402777778  0 18.5590277777778  0 18.3333333333333  L 0 12.5  C 0 12.2743055555555  0.0824652777777715 12.0789930555555  0.247395833333314 11.9140625  C 0.412326388888914 11.7491319444445  0.607638888888914 11.6666666666667  0.833333333333314 11.6666666666667  L 6.66666666666669 11.6666666666667  C 6.89236111111109 11.6666666666667  7.08767361111109 11.7491319444445  7.25260416666669 11.9140625  C 7.41753472222223 12.0789930555555  7.5 12.2743055555555  7.5 12.5  C 7.5 12.7256944444445  7.41753472222223 12.9210069444445  7.25260416666669 13.0859375  L 5.46875 14.8697916666667  C 6.08506944444446 15.4427083333333  6.78385416666669 15.8854166666667  7.56510416666669 16.1979166666667  C 8.34635416666669 16.5104166666667  9.15798611111109 16.6666666666667  10 16.6666666666667  C 11.1631944444445 16.6666666666667  12.2482638888889 16.3845486111111  13.2552083333334 15.8203125  C 14.2621527777778 15.2560763888889  15.0694444444445 14.4791666666667  15.6770833333334 13.4895833333333  C 15.7725694444445 13.3420138888889  16.0026041666666 12.8342013888889  16.3671875 11.9661458333333  C 16.4366319444445 11.7664930555555  16.5668402777778 11.6666666666667  16.7578125 11.6666666666667  L 19.2578125 11.6666666666667  C 19.3706597222222 11.6666666666667  19.4683159722222 11.7078993055555  19.55078125 11.7903645833333  Z M 19.7526041666666 1.08072916666666  C 19.9175347222222 1.24565972222221  20 1.44097222222221  20 1.66666666666666  L 20 7.5  C 20 7.72569444444446  19.9175347222222 7.92100694444446  19.7526041666666 8.0859375  C 19.5876736111111 8.25086805555554  19.3923611111111 8.33333333333334  19.1666666666666 8.33333333333334  L 13.3333333333334 8.33333333333334  C 13.1076388888889 8.33333333333334  12.9123263888889 8.25086805555554  12.7473958333334 8.0859375  C 12.5824652777778 7.92100694444446  12.5 7.72569444444446  12.5 7.5  C 12.5 7.27430555555554  12.5824652777778 7.07899305555554  12.7473958333334 6.9140625  L 14.5442708333334 5.1171875  C 13.2595486111111 3.92795138888889  11.7447916666667 3.33333333333334  10 3.33333333333334  C 8.83680555555554 3.33333333333334  7.75173611111109 3.61545138888889  6.74479166666669 4.1796875  C 5.73784722222223 4.74392361111111  4.93055555555554 5.52083333333334  4.32291666666669 6.51041666666666  C 4.22743055555554 6.65798611111111  3.99739583333331 7.16579861111111  3.6328125 8.03385416666666  C 3.56336805555554 8.23350694444446  3.43315972222223 8.33333333333334  3.2421875 8.33333333333334  L 0.651041666666686 8.33333333333334  C 0.538194444444457 8.33333333333334  0.440538194444457 8.29210069444446  0.358072916666686 8.20963541666666  C 0.275607638888914 8.12717013888889  0.234375 8.02951388888889  0.234375 7.91666666666666  L 0.234375 7.82552083333334  C 0.798611111111086 5.49913194444446  1.97048611111109 3.61328125  3.75 2.16796875  C 5.52951388888891 0.72265625  7.61284722222223 0  10 0  C 11.2673611111111 0  12.5 0.240885416666671  13.6979166666666 0.72265625  C 14.8958333333334 1.20442708333334  15.9592013888889 1.88368055555556  16.8880208333334 2.76041666666666  L 18.5807291666666 1.08072916666666  C 18.7456597222222 0.915798611111114  18.9409722222222 0.833333333333343  19.1666666666666 0.833333333333343  C 19.3923611111111 0.833333333333343  19.5876736111111 0.915798611111114  19.7526041666666 1.08072916666666  Z " fill-rule="nonzero" fill="#199ed8" stroke="none" transform="matrix(1 0 0 1 443 65 )" />
  </g>
</svg>