<?xml version="1.0" encoding="utf-8"?>
<svg version="1.1" xmlns:xlink="http://www.w3.org/1999/xlink" width="12px" height="12px" viewBox="179 555  12 12" xmlns="http://www.w3.org/2000/svg">
  <path d="M 185 555  C 188.36 555  191 557.64  191 561  C 191 564.36  188.36 567  185 567  C 181.64 567  179 564.36  179 561  C 179 557.64  181.64 555  185 555  Z " fill-rule="nonzero" fill="#ffffff" stroke="none" />
  <path d="M 185 555.5  C 188.08 555.5  190.5 557.92  190.5 561  C 190.5 564.08  188.08 566.5  185 566.5  C 181.92 566.5  179.5 564.08  179.5 561  C 179.5 557.92  181.92 555.5  185 555.5  Z " stroke-width="1" stroke="#797979" fill="none" />
  <path d="M 185 564  C 183.32 564  182 562.68  182 561  C 182 559.32  183.32 558  185 558  C 186.68 558  188 559.32  188 561  C 188 562.68  186.68 564  185 564  " fill-rule="nonzero" fill="#797979" stroke="none" />
</svg>