<?xml version="1.0" encoding="utf-8"?>
<svg version="1.1" xmlns:xlink="http://www.w3.org/1999/xlink" width="12px" height="12px" viewBox="281 555  12 12" xmlns="http://www.w3.org/2000/svg">
  <path d="M 287 555  C 290.36 555  293 557.64  293 561  C 293 564.36  290.36 567  287 567  C 283.64 567  281 564.36  281 561  C 281 557.64  283.64 555  287 555  Z " fill-rule="nonzero" fill="#ffffff" stroke="none" />
  <path d="M 287 555.5  C 290.08 555.5  292.5 557.92  292.5 561  C 292.5 564.08  290.08 566.5  287 566.5  C 283.92 566.5  281.5 564.08  281.5 561  C 281.5 557.92  283.92 555.5  287 555.5  Z " stroke-width="1" stroke="#797979" fill="none" />
  <path d="M 287 564  C 285.32 564  284 562.68  284 561  C 284 559.32  285.32 558  287 558  C 288.68 558  290 559.32  290 561  C 290 562.68  288.68 564  287 564  " fill-rule="nonzero" fill="#797979" stroke="none" />
</svg>