<?xml version="1.0" encoding="utf-8"?>
<svg version="1.1" xmlns:xlink="http://www.w3.org/1999/xlink" width="12px" height="12px" viewBox="296 141  12 12" xmlns="http://www.w3.org/2000/svg">
  <path d="M 302 141  C 305.36 141  308 143.64  308 147  C 308 150.36  305.36 153  302 153  C 298.64 153  296 150.36  296 147  C 296 143.64  298.64 141  302 141  Z " fill-rule="nonzero" fill="#ffffff" stroke="none" />
  <path d="M 302 141.5  C 305.08 141.5  307.5 143.92  307.5 147  C 307.5 150.08  305.08 152.5  302 152.5  C 298.92 152.5  296.5 150.08  296.5 147  C 296.5 143.92  298.92 141.5  302 141.5  Z " stroke-width="1" stroke="#797979" fill="none" />
  <path d="M 302 150  C 300.32 150  299 148.68  299 147  C 299 145.32  300.32 144  302 144  C 303.68 144  305 145.32  305 147  C 305 148.68  303.68 150  302 150  " fill-rule="nonzero" fill="#797979" stroke="none" />
</svg>