<?xml version="1.0" encoding="utf-8"?>
<svg version="1.1" xmlns:xlink="http://www.w3.org/1999/xlink" width="12px" height="12px" viewBox="371 141  12 12" xmlns="http://www.w3.org/2000/svg">
  <path d="M 377 141  C 380.36 141  383 143.64  383 147  C 383 150.36  380.36 153  377 153  C 373.64 153  371 150.36  371 147  C 371 143.64  373.64 141  377 141  Z " fill-rule="nonzero" fill="#ffffff" stroke="none" />
  <path d="M 377 141.5  C 380.08 141.5  382.5 143.92  382.5 147  C 382.5 150.08  380.08 152.5  377 152.5  C 373.92 152.5  371.5 150.08  371.5 147  C 371.5 143.92  373.92 141.5  377 141.5  Z " stroke-width="1" stroke="#797979" fill="none" />
  <path d="M 377 150  C 375.32 150  374 148.68  374 147  C 374 145.32  375.32 144  377 144  C 378.68 144  380 145.32  380 147  C 380 148.68  378.68 150  377 150  " fill-rule="nonzero" fill="#797979" stroke="none" />
</svg>