<?xml version="1.0" encoding="utf-8"?>
<svg version="1.1" xmlns:xlink="http://www.w3.org/1999/xlink" width="12px" height="12px" viewBox="372 226  12 12" xmlns="http://www.w3.org/2000/svg">
  <path d="M 378 226  C 381.36 226  384 228.64  384 232  C 384 235.36  381.36 238  378 238  C 374.64 238  372 235.36  372 232  C 372 228.64  374.64 226  378 226  Z " fill-rule="nonzero" fill="#ffffff" stroke="none" />
  <path d="M 378 226.5  C 381.08 226.5  383.5 228.92  383.5 232  C 383.5 235.08  381.08 237.5  378 237.5  C 374.92 237.5  372.5 235.08  372.5 232  C 372.5 228.92  374.92 226.5  378 226.5  Z " stroke-width="1" stroke="#797979" fill="none" />
  <path d="M 378 235  C 376.32 235  375 233.68  375 232  C 375 230.32  376.32 229  378 229  C 379.68 229  381 230.32  381 232  C 381 233.68  379.68 235  378 235  " fill-rule="nonzero" fill="#797979" stroke="none" />
</svg>