<?xml version="1.0" encoding="utf-8"?>
<svg version="1.1" xmlns:xlink="http://www.w3.org/1999/xlink" width="12px" height="12px" viewBox="297 320  12 12" xmlns="http://www.w3.org/2000/svg">
  <path d="M 303 320  C 306.36 320  309 322.64  309 326  C 309 329.36  306.36 332  303 332  C 299.64 332  297 329.36  297 326  C 297 322.64  299.64 320  303 320  Z " fill-rule="nonzero" fill="#ffffff" stroke="none" />
  <path d="M 303 320.5  C 306.08 320.5  308.5 322.92  308.5 326  C 308.5 329.08  306.08 331.5  303 331.5  C 299.92 331.5  297.5 329.08  297.5 326  C 297.5 322.92  299.92 320.5  303 320.5  Z " stroke-width="1" stroke="#797979" fill="none" />
  <path d="M 303 329  C 301.32 329  300 327.68  300 326  C 300 324.32  301.32 323  303 323  C 304.68 323  306 324.32  306 326  C 306 327.68  304.68 329  303 329  " fill-rule="nonzero" fill="#797979" stroke="none" />
</svg>