<?xml version="1.0" encoding="utf-8"?>
<svg version="1.1" xmlns:xlink="http://www.w3.org/1999/xlink" width="12px" height="12px" viewBox="297 346  12 12" xmlns="http://www.w3.org/2000/svg">
  <path d="M 303 346  C 306.36 346  309 348.64  309 352  C 309 355.36  306.36 358  303 358  C 299.64 358  297 355.36  297 352  C 297 348.64  299.64 346  303 346  Z " fill-rule="nonzero" fill="#ffffff" stroke="none" />
  <path d="M 303 346.5  C 306.08 346.5  308.5 348.92  308.5 352  C 308.5 355.08  306.08 357.5  303 357.5  C 299.92 357.5  297.5 355.08  297.5 352  C 297.5 348.92  299.92 346.5  303 346.5  Z " stroke-width="1" stroke="#797979" fill="none" />
  <path d="M 303 355  C 301.32 355  300 353.68  300 352  C 300 350.32  301.32 349  303 349  C 304.68 349  306 350.32  306 352  C 306 353.68  304.68 355  303 355  " fill-rule="nonzero" fill="#797979" stroke="none" />
</svg>