<?xml version="1.0" encoding="utf-8"?>
<svg version="1.1" xmlns:xlink="http://www.w3.org/1999/xlink" width="12px" height="12px" viewBox="297 372  12 12" xmlns="http://www.w3.org/2000/svg">
  <path d="M 303 372  C 306.36 372  309 374.64  309 378  C 309 381.36  306.36 384  303 384  C 299.64 384  297 381.36  297 378  C 297 374.64  299.64 372  303 372  Z " fill-rule="nonzero" fill="#ffffff" stroke="none" />
  <path d="M 303 372.5  C 306.08 372.5  308.5 374.92  308.5 378  C 308.5 381.08  306.08 383.5  303 383.5  C 299.92 383.5  297.5 381.08  297.5 378  C 297.5 374.92  299.92 372.5  303 372.5  Z " stroke-width="1" stroke="#797979" fill="none" />
  <path d="M 303 381  C 301.32 381  300 379.68  300 378  C 300 376.32  301.32 375  303 375  C 304.68 375  306 376.32  306 378  C 306 379.68  304.68 381  303 381  " fill-rule="nonzero" fill="#797979" stroke="none" />
</svg>