<?xml version="1.0" encoding="utf-8"?>
<svg version="1.1" xmlns:xlink="http://www.w3.org/1999/xlink" width="30px" height="40px" xmlns="http://www.w3.org/2000/svg">
  <g transform="matrix(1 0 0 1 -107 -21 )">
    <path d="M 7.97940340909091 28.7834821428571  C 8.11434659090909 28.9248511904762  8.18181818181818 29.0922619047619  8.18181818181818 29.2857142857143  L 8.18181818181818 30.7142857142857  C 8.18181818181818 30.9077380952381  8.11434659090909 31.0751488095238  7.97940340909091 31.2165178571429  C 7.84446022727273 31.3578869047619  7.68465909090909 31.4285714285714  7.5 31.4285714285714  L 6.13636363636364 31.4285714285714  C 5.95170454545455 31.4285714285714  5.79190340909091 31.3578869047619  5.65696022727273 31.2165178571429  C 5.52201704545455 31.0751488095238  5.45454545454546 30.9077380952381  5.45454545454546 30.7142857142857  L 5.45454545454546 29.2857142857143  C 5.45454545454546 29.0922619047619  5.52201704545455 28.9248511904762  5.65696022727273 28.7834821428571  C 5.79190340909091 28.6421130952381  5.95170454545455 28.5714285714286  6.13636363636364 28.5714285714286  L 7.5 28.5714285714286  C 7.68465909090909 28.5714285714286  7.84446022727273 28.6421130952381  7.97940340909091 28.7834821428571  Z M 7.97940340909091 23.0691964285714  C 8.11434659090909 23.2105654761905  8.18181818181818 23.3779761904762  8.18181818181818 23.5714285714286  L 8.18181818181818 25  C 8.18181818181818 25.1934523809524  8.11434659090909 25.3608630952381  7.97940340909091 25.5022321428571  C 7.84446022727273 25.6436011904762  7.68465909090909 25.7142857142857  7.5 25.7142857142857  L 6.13636363636364 25.7142857142857  C 5.95170454545455 25.7142857142857  5.79190340909091 25.6436011904762  5.65696022727273 25.5022321428571  C 5.52201704545455 25.3608630952381  5.45454545454546 25.1934523809524  5.45454545454546 25  L 5.45454545454546 23.5714285714286  C 5.45454545454546 23.3779761904762  5.52201704545455 23.2105654761905  5.65696022727273 23.0691964285714  C 5.79190340909091 22.9278273809524  5.95170454545455 22.8571428571429  6.13636363636364 22.8571428571429  L 7.5 22.8571428571429  C 7.68465909090909 22.8571428571429  7.84446022727273 22.9278273809524  7.97940340909091 23.0691964285714  Z M 13.4339488636364 23.0691964285714  C 13.5688920454545 23.2105654761905  13.6363636363636 23.3779761904762  13.6363636363636 23.5714285714286  L 13.6363636363636 25  C 13.6363636363636 25.1934523809524  13.5688920454545 25.3608630952381  13.4339488636364 25.5022321428571  C 13.2990056818182 25.6436011904762  13.1392045454545 25.7142857142857  12.9545454545455 25.7142857142857  L 11.5909090909091 25.7142857142857  C 11.40625 25.7142857142857  11.2464488636364 25.6436011904762  11.1115056818182 25.5022321428571  C 10.9765625 25.3608630952381  10.9090909090909 25.1934523809524  10.9090909090909 25  L 10.9090909090909 23.5714285714286  C 10.9090909090909 23.3779761904762  10.9765625 23.2105654761905  11.1115056818182 23.0691964285714  C 11.2464488636364 22.9278273809524  11.40625 22.8571428571429  11.5909090909091 22.8571428571429  L 12.9545454545455 22.8571428571429  C 13.1392045454545 22.8571428571429  13.2990056818182 22.9278273809524  13.4339488636364 23.0691964285714  Z M 7.97940340909091 17.3549107142857  C 8.11434659090909 17.4962797619048  8.18181818181818 17.6636904761905  8.18181818181818 17.8571428571429  L 8.18181818181818 19.2857142857143  C 8.18181818181818 19.4791666666667  8.11434659090909 19.6465773809524  7.97940340909091 19.7879464285714  C 7.84446022727273 19.9293154761905  7.68465909090909 20  7.5 20  L 6.13636363636364 20  C 5.95170454545455 20  5.79190340909091 19.9293154761905  5.65696022727273 19.7879464285714  C 5.52201704545455 19.6465773809524  5.45454545454546 19.4791666666667  5.45454545454546 19.2857142857143  L 5.45454545454546 17.8571428571429  C 5.45454545454546 17.6636904761905  5.52201704545455 17.4962797619048  5.65696022727273 17.3549107142857  C 5.79190340909091 17.2135416666667  5.95170454545455 17.1428571428571  6.13636363636364 17.1428571428571  L 7.5 17.1428571428571  C 7.68465909090909 17.1428571428571  7.84446022727273 17.2135416666667  7.97940340909091 17.3549107142857  Z M 24.3430397727273 28.7834821428571  C 24.4779829545455 28.9248511904762  24.5454545454545 29.0922619047619  24.5454545454545 29.2857142857143  L 24.5454545454545 30.7142857142857  C 24.5454545454545 30.9077380952381  24.4779829545455 31.0751488095238  24.3430397727273 31.2165178571429  C 24.2080965909091 31.3578869047619  24.0482954545455 31.4285714285714  23.8636363636364 31.4285714285714  L 22.5 31.4285714285714  C 22.3153409090909 31.4285714285714  22.1555397727273 31.3578869047619  22.0205965909091 31.2165178571429  C 21.8856534090909 31.0751488095238  21.8181818181818 30.9077380952381  21.8181818181818 30.7142857142857  L 21.8181818181818 29.2857142857143  C 21.8181818181818 29.0922619047619  21.8856534090909 28.9248511904762  22.0205965909091 28.7834821428571  C 22.1555397727273 28.6421130952381  22.3153409090909 28.5714285714286  22.5 28.5714285714286  L 23.8636363636364 28.5714285714286  C 24.0482954545455 28.5714285714286  24.2080965909091 28.6421130952381  24.3430397727273 28.7834821428571  Z M 18.8884943181818 23.0691964285714  C 19.0234375 23.2105654761905  19.0909090909091 23.3779761904762  19.0909090909091 23.5714285714286  L 19.0909090909091 25  C 19.0909090909091 25.1934523809524  19.0234375 25.3608630952381  18.8884943181818 25.5022321428571  C 18.7535511363636 25.6436011904762  18.59375 25.7142857142857  18.4090909090909 25.7142857142857  L 17.0454545454545 25.7142857142857  C 16.8607954545455 25.7142857142857  16.7009943181818 25.6436011904762  16.5660511363636 25.5022321428571  C 16.4311079545455 25.3608630952381  16.3636363636364 25.1934523809524  16.3636363636364 25  L 16.3636363636364 23.5714285714286  C 16.3636363636364 23.3779761904762  16.4311079545455 23.2105654761905  16.5660511363636 23.0691964285714  C 16.7009943181818 22.9278273809524  16.8607954545455 22.8571428571429  17.0454545454545 22.8571428571429  L 18.4090909090909 22.8571428571429  C 18.59375 22.8571428571429  18.7535511363636 22.9278273809524  18.8884943181818 23.0691964285714  Z M 13.4339488636364 17.3549107142857  C 13.5688920454545 17.4962797619048  13.6363636363636 17.6636904761905  13.6363636363636 17.8571428571429  L 13.6363636363636 19.2857142857143  C 13.6363636363636 19.4791666666667  13.5688920454545 19.6465773809524  13.4339488636364 19.7879464285714  C 13.2990056818182 19.9293154761905  13.1392045454545 20  12.9545454545455 20  L 11.5909090909091 20  C 11.40625 20  11.2464488636364 19.9293154761905  11.1115056818182 19.7879464285714  C 10.9765625 19.6465773809524  10.9090909090909 19.4791666666667  10.9090909090909 19.2857142857143  L 10.9090909090909 17.8571428571429  C 10.9090909090909 17.6636904761905  10.9765625 17.4962797619048  11.1115056818182 17.3549107142857  C 11.2464488636364 17.2135416666667  11.40625 17.1428571428571  11.5909090909091 17.1428571428571  L 12.9545454545455 17.1428571428571  C 13.1392045454545 17.1428571428571  13.2990056818182 17.2135416666667  13.4339488636364 17.3549107142857  Z M 7.97940340909091 11.640625  C 8.11434659090909 11.781994047619  8.18181818181818 11.9494047619048  8.18181818181818 12.1428571428571  L 8.18181818181818 13.5714285714286  C 8.18181818181818 13.7648809523809  8.11434659090909 13.9322916666667  7.97940340909091 14.0736607142857  C 7.84446022727273 14.2150297619048  7.68465909090909 14.2857142857143  7.5 14.2857142857143  L 6.13636363636364 14.2857142857143  C 5.95170454545455 14.2857142857143  5.79190340909091 14.2150297619048  5.65696022727273 14.0736607142857  C 5.52201704545455 13.9322916666667  5.45454545454546 13.7648809523809  5.45454545454546 13.5714285714286  L 5.45454545454546 12.1428571428571  C 5.45454545454546 11.9494047619048  5.52201704545455 11.781994047619  5.65696022727273 11.640625  C 5.79190340909091 11.4992559523809  5.95170454545455 11.4285714285714  6.13636363636364 11.4285714285714  L 7.5 11.4285714285714  C 7.68465909090909 11.4285714285714  7.84446022727273 11.4992559523809  7.97940340909091 11.640625  Z M 24.3430397727273 23.0691964285714  C 24.4779829545455 23.2105654761905  24.5454545454545 23.3779761904762  24.5454545454545 23.5714285714286  L 24.5454545454545 25  C 24.5454545454545 25.1934523809524  24.4779829545455 25.3608630952381  24.3430397727273 25.5022321428571  C 24.2080965909091 25.6436011904762  24.0482954545455 25.7142857142857  23.8636363636364 25.7142857142857  L 22.5 25.7142857142857  C 22.3153409090909 25.7142857142857  22.1555397727273 25.6436011904762  22.0205965909091 25.5022321428571  C 21.8856534090909 25.3608630952381  21.8181818181818 25.1934523809524  21.8181818181818 25  L 21.8181818181818 23.5714285714286  C 21.8181818181818 23.3779761904762  21.8856534090909 23.2105654761905  22.0205965909091 23.0691964285714  C 22.1555397727273 22.9278273809524  22.3153409090909 22.8571428571429  22.5 22.8571428571429  L 23.8636363636364 22.8571428571429  C 24.0482954545455 22.8571428571429  24.2080965909091 22.9278273809524  24.3430397727273 23.0691964285714  Z M 18.8884943181818 17.3549107142857  C 19.0234375 17.4962797619048  19.0909090909091 17.6636904761905  19.0909090909091 17.8571428571429  L 19.0909090909091 19.2857142857143  C 19.0909090909091 19.4791666666667  19.0234375 19.6465773809524  18.8884943181818 19.7879464285714  C 18.7535511363636 19.9293154761905  18.59375 20  18.4090909090909 20  L 17.0454545454545 20  C 16.8607954545455 20  16.7009943181818 19.9293154761905  16.5660511363636 19.7879464285714  C 16.4311079545455 19.6465773809524  16.3636363636364 19.4791666666667  16.3636363636364 19.2857142857143  L 16.3636363636364 17.8571428571429  C 16.3636363636364 17.6636904761905  16.4311079545455 17.4962797619048  16.5660511363636 17.3549107142857  C 16.7009943181818 17.2135416666667  16.8607954545455 17.1428571428571  17.0454545454545 17.1428571428571  L 18.4090909090909 17.1428571428571  C 18.59375 17.1428571428571  18.7535511363636 17.2135416666667  18.8884943181818 17.3549107142857  Z M 13.4339488636364 11.640625  C 13.5688920454545 11.781994047619  13.6363636363636 11.9494047619048  13.6363636363636 12.1428571428571  L 13.6363636363636 13.5714285714286  C 13.6363636363636 13.7648809523809  13.5688920454545 13.9322916666667  13.4339488636364 14.0736607142857  C 13.2990056818182 14.2150297619048  13.1392045454545 14.2857142857143  12.9545454545455 14.2857142857143  L 11.5909090909091 14.2857142857143  C 11.40625 14.2857142857143  11.2464488636364 14.2150297619048  11.1115056818182 14.0736607142857  C 10.9765625 13.9322916666667  10.9090909090909 13.7648809523809  10.9090909090909 13.5714285714286  L 10.9090909090909 12.1428571428571  C 10.9090909090909 11.9494047619048  10.9765625 11.781994047619  11.1115056818182 11.640625  C 11.2464488636364 11.4992559523809  11.40625 11.4285714285714  11.5909090909091 11.4285714285714  L 12.9545454545455 11.4285714285714  C 13.1392045454545 11.4285714285714  13.2990056818182 11.4992559523809  13.4339488636364 11.640625  Z M 7.97940340909091 5.92633928571428  C 8.11434659090909 6.06770833333333  8.18181818181818 6.23511904761905  8.18181818181818 6.42857142857143  L 8.18181818181818 7.85714285714286  C 8.18181818181818 8.05059523809523  8.11434659090909 8.21800595238095  7.97940340909091 8.359375  C 7.84446022727273 8.50074404761905  7.68465909090909 8.57142857142857  7.5 8.57142857142857  L 6.13636363636364 8.57142857142857  C 5.95170454545455 8.57142857142857  5.79190340909091 8.50074404761905  5.65696022727273 8.359375  C 5.52201704545455 8.21800595238095  5.45454545454546 8.05059523809523  5.45454545454546 7.85714285714286  L 5.45454545454546 6.42857142857143  C 5.45454545454546 6.23511904761905  5.52201704545455 6.06770833333333  5.65696022727273 5.92633928571428  C 5.79190340909091 5.78497023809523  5.95170454545455 5.71428571428572  6.13636363636364 5.71428571428572  L 7.5 5.71428571428572  C 7.68465909090909 5.71428571428572  7.84446022727273 5.78497023809523  7.97940340909091 5.92633928571428  Z M 24.3430397727273 17.3549107142857  C 24.4779829545455 17.4962797619048  24.5454545454545 17.6636904761905  24.5454545454545 17.8571428571429  L 24.5454545454545 19.2857142857143  C 24.5454545454545 19.4791666666667  24.4779829545455 19.6465773809524  24.3430397727273 19.7879464285714  C 24.2080965909091 19.9293154761905  24.0482954545455 20  23.8636363636364 20  L 22.5 20  C 22.3153409090909 20  22.1555397727273 19.9293154761905  22.0205965909091 19.7879464285714  C 21.8856534090909 19.6465773809524  21.8181818181818 19.4791666666667  21.8181818181818 19.2857142857143  L 21.8181818181818 17.8571428571429  C 21.8181818181818 17.6636904761905  21.8856534090909 17.4962797619048  22.0205965909091 17.3549107142857  C 22.1555397727273 17.2135416666667  22.3153409090909 17.1428571428571  22.5 17.1428571428571  L 23.8636363636364 17.1428571428571  C 24.0482954545455 17.1428571428571  24.2080965909091 17.2135416666667  24.3430397727273 17.3549107142857  Z M 18.8884943181818 11.640625  C 19.0234375 11.781994047619  19.0909090909091 11.9494047619048  19.0909090909091 12.1428571428571  L 19.0909090909091 13.5714285714286  C 19.0909090909091 13.7648809523809  19.0234375 13.9322916666667  18.8884943181818 14.0736607142857  C 18.7535511363636 14.2150297619048  18.59375 14.2857142857143  18.4090909090909 14.2857142857143  L 17.0454545454545 14.2857142857143  C 16.8607954545455 14.2857142857143  16.7009943181818 14.2150297619048  16.5660511363636 14.0736607142857  C 16.4311079545455 13.9322916666667  16.3636363636364 13.7648809523809  16.3636363636364 13.5714285714286  L 16.3636363636364 12.1428571428571  C 16.3636363636364 11.9494047619048  16.4311079545455 11.781994047619  16.5660511363636 11.640625  C 16.7009943181818 11.4992559523809  16.8607954545455 11.4285714285714  17.0454545454545 11.4285714285714  L 18.4090909090909 11.4285714285714  C 18.59375 11.4285714285714  18.7535511363636 11.4992559523809  18.8884943181818 11.640625  Z M 13.4339488636364 5.92633928571428  C 13.5688920454545 6.06770833333333  13.6363636363636 6.23511904761905  13.6363636363636 6.42857142857143  L 13.6363636363636 7.85714285714286  C 13.6363636363636 8.05059523809523  13.5688920454545 8.21800595238095  13.4339488636364 8.359375  C 13.2990056818182 8.50074404761905  13.1392045454545 8.57142857142857  12.9545454545455 8.57142857142857  L 11.5909090909091 8.57142857142857  C 11.40625 8.57142857142857  11.2464488636364 8.50074404761905  11.1115056818182 8.359375  C 10.9765625 8.21800595238095  10.9090909090909 8.05059523809523  10.9090909090909 7.85714285714286  L 10.9090909090909 6.42857142857143  C 10.9090909090909 6.23511904761905  10.9765625 6.06770833333333  11.1115056818182 5.92633928571428  C 11.2464488636364 5.78497023809523  11.40625 5.71428571428572  11.5909090909091 5.71428571428572  L 12.9545454545455 5.71428571428572  C 13.1392045454545 5.71428571428572  13.2990056818182 5.78497023809523  13.4339488636364 5.92633928571428  Z M 24.3430397727273 11.640625  C 24.4779829545455 11.781994047619  24.5454545454545 11.9494047619048  24.5454545454545 12.1428571428571  L 24.5454545454545 13.5714285714286  C 24.5454545454545 13.7648809523809  24.4779829545455 13.9322916666667  24.3430397727273 14.0736607142857  C 24.2080965909091 14.2150297619048  24.0482954545455 14.2857142857143  23.8636363636364 14.2857142857143  L 22.5 14.2857142857143  C 22.3153409090909 14.2857142857143  22.1555397727273 14.2150297619048  22.0205965909091 14.0736607142857  C 21.8856534090909 13.9322916666667  21.8181818181818 13.7648809523809  21.8181818181818 13.5714285714286  L 21.8181818181818 12.1428571428571  C 21.8181818181818 11.9494047619048  21.8856534090909 11.781994047619  22.0205965909091 11.640625  C 22.1555397727273 11.4992559523809  22.3153409090909 11.4285714285714  22.5 11.4285714285714  L 23.8636363636364 11.4285714285714  C 24.0482954545455 11.4285714285714  24.2080965909091 11.4992559523809  24.3430397727273 11.640625  Z M 18.8884943181818 5.92633928571428  C 19.0234375 6.06770833333333  19.0909090909091 6.23511904761905  19.0909090909091 6.42857142857143  L 19.0909090909091 7.85714285714286  C 19.0909090909091 8.05059523809523  19.0234375 8.21800595238095  18.8884943181818 8.359375  C 18.7535511363636 8.50074404761905  18.59375 8.57142857142857  18.4090909090909 8.57142857142857  L 17.0454545454545 8.57142857142857  C 16.8607954545455 8.57142857142857  16.7009943181818 8.50074404761905  16.5660511363636 8.359375  C 16.4311079545455 8.21800595238095  16.3636363636364 8.05059523809523  16.3636363636364 7.85714285714286  L 16.3636363636364 6.42857142857143  C 16.3636363636364 6.23511904761905  16.4311079545455 6.06770833333333  16.5660511363636 5.92633928571428  C 16.7009943181818 5.78497023809523  16.8607954545455 5.71428571428572  17.0454545454545 5.71428571428572  L 18.4090909090909 5.71428571428572  C 18.59375 5.71428571428572  18.7535511363636 5.78497023809523  18.8884943181818 5.92633928571428  Z M 24.3430397727273 5.92633928571428  C 24.4779829545455 6.06770833333333  24.5454545454545 6.23511904761905  24.5454545454545 6.42857142857143  L 24.5454545454545 7.85714285714286  C 24.5454545454545 8.05059523809523  24.4779829545455 8.21800595238095  24.3430397727273 8.359375  C 24.2080965909091 8.50074404761905  24.0482954545455 8.57142857142857  23.8636363636364 8.57142857142857  L 22.5 8.57142857142857  C 22.3153409090909 8.57142857142857  22.1555397727273 8.50074404761905  22.0205965909091 8.359375  C 21.8856534090909 8.21800595238095  21.8181818181818 8.05059523809523  21.8181818181818 7.85714285714286  L 21.8181818181818 6.42857142857143  C 21.8181818181818 6.23511904761905  21.8856534090909 6.06770833333333  22.0205965909091 5.92633928571428  C 22.1555397727273 5.78497023809523  22.3153409090909 5.71428571428572  22.5 5.71428571428572  L 23.8636363636364 5.71428571428572  C 24.0482954545455 5.71428571428572  24.2080965909091 5.78497023809523  24.3430397727273 5.92633928571428  Z M 19.0909090909091 32.1428571428571  L 19.0909090909091 37.1428571428571  L 27 37.1428571428571  L 27 3  L 3 3  L 3 37.1428571428571  L 10.9090909090909 37.1428571428571  L 10.9090909090909 32.1428571428571  C 10.9090909090909 31.9494047619048  10.9765625 31.781994047619  11.1115056818182 31.640625  C 11.2464488636364 31.499255952381  11.40625 31.4285714285714  11.5909090909091 31.4285714285714  L 18.4090909090909 31.4285714285714  C 18.59375 31.4285714285714  18.7535511363636 31.499255952381  18.8884943181818 31.640625  C 19.0234375 31.781994047619  19.0909090909091 31.9494047619048  19.0909090909091 32.1428571428571  Z M 29.5951704545455 0.424107142857144  C 29.8650568181818 0.706845238095233  30 1.04166666666667  30 1.42857142857143  L 30 38.5714285714286  C 30 38.9583333333333  29.8650568181818 39.2931547619048  29.5951704545455 39.5758928571429  C 29.3252840909091 39.858630952381  29.0056818181818 40  28.6363636363636 40  L 1.36363636363636 40  C 0.994318181818182 40  0.674715909090909 39.858630952381  0.404829545454545 39.5758928571429  C 0.134943181818182 39.2931547619048  0 38.9583333333333  0 38.5714285714286  L 0 1.42857142857143  C 0 1.04166666666667  0.134943181818182 0.706845238095233  0.404829545454545 0.424107142857144  C 0.674715909090909 0.141369047619051  0.994318181818182 0  1.36363636363636 0  L 28.6363636363636 0  C 29.0056818181818 0  29.3252840909091 0.141369047619051  29.5951704545455 0.424107142857144  Z " fill-rule="nonzero" fill="#f2f2f2" stroke="none" transform="matrix(1 0 0 1 107 21 )" />
  </g>
</svg>