<?xml version="1.0" encoding="utf-8"?>
<svg version="1.1" xmlns:xlink="http://www.w3.org/1999/xlink" width="20px" height="11px" xmlns="http://www.w3.org/2000/svg">
  <g transform="matrix(1 0 0 1 -168 -108 )">
    <path d="M 19.7995991983968 1.1340206185567  C 19.9331997327989 1.26002290950744  20 1.4049255441008  20 1.56872852233677  C 20 1.73253150057274  19.9331997327989 1.87743413516609  19.7995991983968 2.00343642611684  L 10.4609218436874 10.8109965635739  C 10.3273213092852 10.9369988545246  10.1736806947228 11  10 11  C 9.82631930527722 11  9.67267869071476 10.9369988545246  9.53907815631263 10.8109965635739  L 0.200400801603206 2.00343642611684  C 0.066800267201069 1.87743413516609  0 1.73253150057274  0 1.56872852233677  C 0 1.4049255441008  0.066800267201069 1.26002290950744  0.200400801603206 1.1340206185567  L 1.20240480961924 0.189003436426117  C 1.33600534402138 0.0630011454753708  1.48964595858383 0  1.66332665330661 0  C 1.83700734802939 0  1.99064796259185 0.0630011454753708  2.12424849699399 0.189003436426117  L 10 7.61683848797251  L 17.875751503006 0.189003436426117  C 18.0093520374081 0.0630011454753708  18.1629926519706 0  18.3366733466934 0  C 18.5103540414162 0  18.6639946559786 0.0630011454753708  18.7975951903808 0.189003436426117  L 19.7995991983968 1.1340206185567  Z " fill-rule="nonzero" fill="#d7d7d7" stroke="none" transform="matrix(1 0 0 1 168 108 )" />
  </g>
</svg>