<?xml version="1.0" encoding="utf-8"?>
<svg version="1.1" xmlns:xlink="http://www.w3.org/1999/xlink" width="20px" height="15px" xmlns="http://www.w3.org/2000/svg">
  <g transform="matrix(1 0 0 1 -212 -30 )">
    <path d="M 19.7526041666667 12.22265625  C 19.9175347222222 12.37109375  20 12.546875  20 12.75  L 20 14.25  C 20 14.453125  19.9175347222222 14.62890625  19.7526041666667 14.77734375  C 19.5876736111111 14.92578125  19.3923611111111 15  19.1666666666667 15  L 0.833333333333333 15  C 0.607638888888889 15  0.412326388888889 14.92578125  0.247395833333333 14.77734375  C 0.0824652777777778 14.62890625  0 14.453125  0 14.25  L 0 12.75  C 0 12.546875  0.0824652777777778 12.37109375  0.247395833333333 12.22265625  C 0.412326388888889 12.07421875  0.607638888888889 12  0.833333333333333 12  L 19.1666666666667 12  C 19.3923611111111 12  19.5876736111111 12.07421875  19.7526041666667 12.22265625  Z M 19.7526041666667 6.22265625  C 19.9175347222222 6.37109375  20 6.546875  20 6.75  L 20 8.25  C 20 8.453125  19.9175347222222 8.62890625  19.7526041666667 8.77734375  C 19.5876736111111 8.92578125  19.3923611111111 9  19.1666666666667 9  L 0.833333333333333 9  C 0.607638888888889 9  0.412326388888889 8.92578125  0.247395833333333 8.77734375  C 0.0824652777777778 8.62890625  0 8.453125  0 8.25  L 0 6.75  C 0 6.546875  0.0824652777777778 6.37109375  0.247395833333333 6.22265625  C 0.412326388888889 6.07421875  0.607638888888889 6  0.833333333333333 6  L 19.1666666666667 6  C 19.3923611111111 6  19.5876736111111 6.07421875  19.7526041666667 6.22265625  Z M 19.7526041666667 0.222656250000001  C 19.9175347222222 0.371093749999999  20 0.546874999999999  20 0.750000000000001  L 20 2.25  C 20 2.453125  19.9175347222222 2.62890625  19.7526041666667 2.77734375  C 19.5876736111111 2.92578125  19.3923611111111 3  19.1666666666667 3  L 0.833333333333333 3  C 0.607638888888889 3  0.412326388888889 2.92578125  0.247395833333333 2.77734375  C 0.0824652777777778 2.62890625  0 2.453125  0 2.25  L 0 0.750000000000001  C 0 0.546874999999999  0.0824652777777778 0.371093749999999  0.247395833333333 0.222656250000001  C 0.412326388888889 0.0742187499999991  0.607638888888889 0  0.833333333333333 0  L 19.1666666666667 0  C 19.3923611111111 0  19.5876736111111 0.0742187499999991  19.7526041666667 0.222656250000001  Z " fill-rule="nonzero" fill="#aaaaaa" stroke="none" transform="matrix(1 0 0 1 212 30 )" />
  </g>
</svg>