<?xml version="1.0" encoding="utf-8"?>
<svg version="1.1" xmlns:xlink="http://www.w3.org/1999/xlink" width="15px" height="10px" xmlns="http://www.w3.org/2000/svg">
  <g transform="matrix(1 0 0 1 -46 -211 )">
    <path d="M 14.8496993987976 1.03092783505156  C 14.9498997995992 1.14547537227949  15 1.27720504009164  15 1.42611683848799  C 15 1.5750286368843  14.9498997995992 1.70675830469645  14.8496993987976 1.82130584192439  L 7.84569138276553 9.82817869415808  C 7.74549098196393 9.94272623138602  7.63026052104208 10  7.5 10  C 7.36973947895792 10  7.25450901803607 9.94272623138602  7.15430861723447 9.82817869415808  L 0.150300601202403 1.82130584192439  C 0.0501002004007987 1.70675830469645  0 1.5750286368843  0 1.42611683848799  C 0 1.27720504009164  0.0501002004007987 1.14547537227949  0.150300601202403 1.03092783505156  L 0.901803607214426 0.171821305841917  C 1.00200400801603 0.0572737686139817  1.11723446893787 0  1.24749498997996 0  C 1.37775551102204 0  1.49298597194389 0.0572737686139817  1.59318637274549 0.171821305841917  L 7.5 6.92439862542955  L 13.4068136272545 0.171821305841917  C 13.5070140280561 0.0572737686139817  13.622244488978 0  13.75250501002 0  C 13.8827655310621 0  13.997995991984 0.0572737686139817  14.0981963927856 0.171821305841917  L 14.8496993987976 1.03092783505156  Z " fill-rule="nonzero" fill="#cccccc" stroke="none" transform="matrix(1 0 0 1 46 211 )" />
  </g>
</svg>