<?xml version="1.0" encoding="utf-8"?>
<svg version="1.1" xmlns:xlink="http://www.w3.org/1999/xlink" width="45px" height="45px" xmlns="http://www.w3.org/2000/svg">
  <g transform="matrix(1 0 0 1 -74 -42 )">
    <path d="M 96.5 42  C 109.1 42  119 51.9  119 64.5  C 119 77.1  109.1 87  96.5 87  C 83.9 87  74 77.1  74 64.5  C 74 51.9  83.9 42  96.5 42  Z " fill-rule="nonzero" fill="#009999" stroke="none" fill-opacity="0.858823529411765" />
    <path d="M 96.5 42.5  C 108.82 42.5  118.5 52.18  118.5 64.5  C 118.5 76.82  108.82 86.5  96.5 86.5  C 84.18 86.5  74.5 76.82  74.5 64.5  C 74.5 52.18  84.18 42.5  96.5 42.5  Z " stroke-width="1" stroke="#797979" fill="none" />
  </g>
</svg>