<?xml version="1.0" encoding="utf-8"?>
<svg version="1.1" xmlns:xlink="http://www.w3.org/1999/xlink" width="30px" height="30px" xmlns="http://www.w3.org/2000/svg">
  <g transform="matrix(1 0 0 1 -718 -52 )">
    <path d="M 733 52  C 741.4 52  748 58.6  748 67  C 748 75.4  741.4 82  733 82  C 724.6 82  718 75.4  718 67  C 718 58.6  724.6 52  733 52  Z " fill-rule="nonzero" fill="#ffcc00" stroke="none" />
    <path d="M 733 52.5  C 741.12 52.5  747.5 58.88  747.5 67  C 747.5 75.12  741.12 81.5  733 81.5  C 724.88 81.5  718.5 75.12  718.5 67  C 718.5 58.88  724.88 52.5  733 52.5  Z " stroke-width="1" stroke="#cccccc" fill="none" />
  </g>
</svg>