<?xml version="1.0" encoding="utf-8"?>
<svg version="1.1" xmlns:xlink="http://www.w3.org/1999/xlink" width="30px" height="30px" xmlns="http://www.w3.org/2000/svg">
  <g transform="matrix(1 0 0 1 -404 -51 )">
    <path d="M 419 51  C 427.4 51  434 57.6  434 66  C 434 74.4  427.4 81  419 81  C 410.6 81  404 74.4  404 66  C 404 57.6  410.6 51  419 51  Z " fill-rule="nonzero" fill="#20b097" stroke="none" />
    <path d="M 419 51.5  C 427.12 51.5  433.5 57.88  433.5 66  C 433.5 74.12  427.12 80.5  419 80.5  C 410.88 80.5  404.5 74.12  404.5 66  C 404.5 57.88  410.88 51.5  419 51.5  Z " stroke-width="1" stroke="#cccccc" fill="none" />
  </g>
</svg>