<?xml version="1.0" encoding="utf-8"?>
<svg version="1.1" xmlns:xlink="http://www.w3.org/1999/xlink" width="37px" height="35px" xmlns="http://www.w3.org/2000/svg">
  <g transform="matrix(1 0 0 1 -638 -18 )">
    <path d="M 30.3756510416666 19.9837239583333  C 30.6807725694445 19.6950954861111  30.8333333333334 19.3532986111111  30.8333333333334 18.9583333333333  L 30.8333333333334 16.0416666666667  C 30.8333333333334 15.6467013888889  30.6807725694445 15.3049045138889  30.3756510416666 15.0162760416667  C 30.0705295138889 14.7276475694444  29.7092013888889 14.5833333333333  29.2916666666666 14.5833333333333  L 21.5833333333334 14.5833333333333  L 21.5833333333334 7.29166666666667  C 21.5833333333334 6.89670138888889  21.4307725694445 6.55490451388889  21.1256510416666 6.26627604166667  C 20.8205295138889 5.97764756944444  20.4592013888889 5.83333333333333  20.0416666666666 5.83333333333333  L 16.9583333333334 5.83333333333333  C 16.5407986111111 5.83333333333333  16.1794704861111 5.97764756944444  15.8743489583334 6.26627604166667  C 15.5692274305555 6.55490451388889  15.4166666666666 6.89670138888889  15.4166666666666 7.29166666666667  L 15.4166666666666 14.5833333333333  L 7.70833333333337 14.5833333333333  C 7.29079861111109 14.5833333333333  6.92947048611109 14.7276475694444  6.62434895833337 15.0162760416667  C 6.31922743055554 15.3049045138889  6.16666666666663 15.6467013888889  6.16666666666663 16.0416666666667  L 6.16666666666663 18.9583333333333  C 6.16666666666663 19.3532986111111  6.31922743055554 19.6950954861111  6.62434895833337 19.9837239583333  C 6.92947048611109 20.2723524305556  7.29079861111109 20.4166666666667  7.70833333333337 20.4166666666667  L 15.4166666666666 20.4166666666667  L 15.4166666666666 27.7083333333333  C 15.4166666666666 28.1032986111111  15.5692274305555 28.4450954861111  15.8743489583334 28.7337239583333  C 16.1794704861111 29.0223524305556  16.5407986111111 29.1666666666667  16.9583333333334 29.1666666666667  L 20.0416666666666 29.1666666666667  C 20.4592013888889 29.1666666666667  20.8205295138889 29.0223524305556  21.1256510416666 28.7337239583333  C 21.4307725694445 28.4450954861111  21.5833333333334 28.1032986111111  21.5833333333334 27.7083333333333  L 21.5833333333334 20.4166666666667  L 29.2916666666666 20.4166666666667  C 29.7092013888889 20.4166666666667  30.0705295138889 20.2723524305556  30.3756510416666 19.9837239583333  Z M 34.9645182291666 1.92545572916667  C 36.3215060763889 3.20909288194444  37 4.75477430555555  37 6.5625  L 37 28.4375  C 37 30.2452256944444  36.3215060763889 31.7909071180556  34.9645182291666 33.0745442708333  C 33.6075303819445 34.3581814236111  31.9735243055555 35  30.0625 35  L 6.9375 35  C 5.02647569444446 35  3.39246961805554 34.3581814236111  2.03548177083337 33.0745442708333  C 0.678493923611086 31.7909071180556  0 30.2452256944444  0 28.4375  L 0 6.5625  C 0 4.75477430555555  0.678493923611086 3.20909288194444  2.03548177083337 1.92545572916667  C 3.39246961805554 0.641818576388886  5.02647569444446 0  6.9375 0  L 30.0625 0  C 31.9735243055555 0  33.6075303819445 0.641818576388886  34.9645182291666 1.92545572916667  Z " fill-rule="nonzero" fill="#cccccc" stroke="none" transform="matrix(1 0 0 1 638 18 )" />
  </g>
</svg>