<?xml version="1.0" encoding="utf-8"?>
<svg version="1.1" xmlns:xlink="http://www.w3.org/1999/xlink" width="12px" height="12px" viewBox="125 155  12 12" xmlns="http://www.w3.org/2000/svg">
  <path d="M 131 155  C 134.36 155  137 157.64  137 161  C 137 164.36  134.36 167  131 167  C 127.64 167  125 164.36  125 161  C 125 157.64  127.64 155  131 155  Z " fill-rule="nonzero" fill="#ffffff" stroke="none" />
  <path d="M 131 155.5  C 134.08 155.5  136.5 157.92  136.5 161  C 136.5 164.08  134.08 166.5  131 166.5  C 127.92 166.5  125.5 164.08  125.5 161  C 125.5 157.92  127.92 155.5  131 155.5  Z " stroke-width="1" stroke="#797979" fill="none" />
  <path d="M 131 164  C 129.32 164  128 162.68  128 161  C 128 159.32  129.32 158  131 158  C 132.68 158  134 159.32  134 161  C 134 162.68  132.68 164  131 164  " fill-rule="nonzero" fill="#797979" stroke="none" />
</svg>