<?xml version="1.0" encoding="utf-8"?>
<svg version="1.1" xmlns:xlink="http://www.w3.org/1999/xlink" width="12px" height="12px" viewBox="125 90  12 12" xmlns="http://www.w3.org/2000/svg">
  <path d="M 131 90  C 134.36 90  137 92.64  137 96  C 137 99.36  134.36 102  131 102  C 127.64 102  125 99.36  125 96  C 125 92.64  127.64 90  131 90  Z " fill-rule="nonzero" fill="#ffffff" stroke="none" />
  <path d="M 131 90.5  C 134.08 90.5  136.5 92.92  136.5 96  C 136.5 99.08  134.08 101.5  131 101.5  C 127.92 101.5  125.5 99.08  125.5 96  C 125.5 92.92  127.92 90.5  131 90.5  Z " stroke-width="1" stroke="#797979" fill="none" />
  <path d="M 131 99  C 129.32 99  128 97.68  128 96  C 128 94.32  129.32 93  131 93  C 132.68 93  134 94.32  134 96  C 134 97.68  132.68 99  131 99  " fill-rule="nonzero" fill="#797979" stroke="none" />
</svg>