<?xml version="1.0" encoding="utf-8"?>
<svg version="1.1" xmlns:xlink="http://www.w3.org/1999/xlink" width="12px" height="12px" viewBox="125 122  12 12" xmlns="http://www.w3.org/2000/svg">
  <path d="M 131 122  C 134.36 122  137 124.64  137 128  C 137 131.36  134.36 134  131 134  C 127.64 134  125 131.36  125 128  C 125 124.64  127.64 122  131 122  Z " fill-rule="nonzero" fill="#ffffff" stroke="none" />
  <path d="M 131 122.5  C 134.08 122.5  136.5 124.92  136.5 128  C 136.5 131.08  134.08 133.5  131 133.5  C 127.92 133.5  125.5 131.08  125.5 128  C 125.5 124.92  127.92 122.5  131 122.5  Z " stroke-width="1" stroke="#797979" fill="none" />
  <path d="M 131 131  C 129.32 131  128 129.68  128 128  C 128 126.32  129.32 125  131 125  C 132.68 125  134 126.32  134 128  C 134 129.68  132.68 131  131 131  " fill-rule="nonzero" fill="#797979" stroke="none" />
</svg>