<?xml version="1.0" encoding="utf-8"?>
<svg version="1.1" xmlns:xlink="http://www.w3.org/1999/xlink" width="12px" height="12px" viewBox="585 122  12 12" xmlns="http://www.w3.org/2000/svg">
  <path d="M 591 122  C 594.36 122  597 124.64  597 128  C 597 131.36  594.36 134  591 134  C 587.64 134  585 131.36  585 128  C 585 124.64  587.64 122  591 122  Z " fill-rule="nonzero" fill="#ffffff" stroke="none" />
  <path d="M 591 122.5  C 594.08 122.5  596.5 124.92  596.5 128  C 596.5 131.08  594.08 133.5  591 133.5  C 587.92 133.5  585.5 131.08  585.5 128  C 585.5 124.92  587.92 122.5  591 122.5  Z " stroke-width="1" stroke="#797979" fill="none" />
  <path d="M 591 131  C 589.32 131  588 129.68  588 128  C 588 126.32  589.32 125  591 125  C 592.68 125  594 126.32  594 128  C 594 129.68  592.68 131  591 131  " fill-rule="nonzero" fill="#797979" stroke="none" />
</svg>