<?xml version="1.0" encoding="utf-8"?>
<svg version="1.1" xmlns:xlink="http://www.w3.org/1999/xlink" width="12px" height="12px" viewBox="289 155  12 12" xmlns="http://www.w3.org/2000/svg">
  <path d="M 295 155  C 298.36 155  301 157.64  301 161  C 301 164.36  298.36 167  295 167  C 291.64 167  289 164.36  289 161  C 289 157.64  291.64 155  295 155  Z " fill-rule="nonzero" fill="#ffffff" stroke="none" />
  <path d="M 295 155.5  C 298.08 155.5  300.5 157.92  300.5 161  C 300.5 164.08  298.08 166.5  295 166.5  C 291.92 166.5  289.5 164.08  289.5 161  C 289.5 157.92  291.92 155.5  295 155.5  Z " stroke-width="1" stroke="#797979" fill="none" />
  <path d="M 295 164  C 293.32 164  292 162.68  292 161  C 292 159.32  293.32 158  295 158  C 296.68 158  298 159.32  298 161  C 298 162.68  296.68 164  295 164  " fill-rule="nonzero" fill="#797979" stroke="none" />
</svg>