<?xml version="1.0" encoding="utf-8"?>
<svg version="1.1" xmlns:xlink="http://www.w3.org/1999/xlink" width="12px" height="12px" viewBox="585 90  12 12" xmlns="http://www.w3.org/2000/svg">
  <path d="M 591 90  C 594.36 90  597 92.64  597 96  C 597 99.36  594.36 102  591 102  C 587.64 102  585 99.36  585 96  C 585 92.64  587.64 90  591 90  Z " fill-rule="nonzero" fill="#ffffff" stroke="none" />
  <path d="M 591 90.5  C 594.08 90.5  596.5 92.92  596.5 96  C 596.5 99.08  594.08 101.5  591 101.5  C 587.92 101.5  585.5 99.08  585.5 96  C 585.5 92.92  587.92 90.5  591 90.5  Z " stroke-width="1" stroke="#797979" fill="none" />
  <path d="M 591 99  C 589.32 99  588 97.68  588 96  C 588 94.32  589.32 93  591 93  C 592.68 93  594 94.32  594 96  C 594 97.68  592.68 99  591 99  " fill-rule="nonzero" fill="#797979" stroke="none" />
</svg>