<?xml version="1.0" encoding="utf-8"?>
<svg version="1.1" xmlns:xlink="http://www.w3.org/1999/xlink" width="12px" height="12px" viewBox="289 122  12 12" xmlns="http://www.w3.org/2000/svg">
  <path d="M 295 122  C 298.36 122  301 124.64  301 128  C 301 131.36  298.36 134  295 134  C 291.64 134  289 131.36  289 128  C 289 124.64  291.64 122  295 122  Z " fill-rule="nonzero" fill="#ffffff" stroke="none" />
  <path d="M 295 122.5  C 298.08 122.5  300.5 124.92  300.5 128  C 300.5 131.08  298.08 133.5  295 133.5  C 291.92 133.5  289.5 131.08  289.5 128  C 289.5 124.92  291.92 122.5  295 122.5  Z " stroke-width="1" stroke="#797979" fill="none" />
  <path d="M 295 131  C 293.32 131  292 129.68  292 128  C 292 126.32  293.32 125  295 125  C 296.68 125  298 126.32  298 128  C 298 129.68  296.68 131  295 131  " fill-rule="nonzero" fill="#797979" stroke="none" />
</svg>