<?xml version="1.0" encoding="utf-8"?>
<svg version="1.1" xmlns:xlink="http://www.w3.org/1999/xlink" width="12px" height="12px" viewBox="434 155  12 12" xmlns="http://www.w3.org/2000/svg">
  <path d="M 440 155  C 443.36 155  446 157.64  446 161  C 446 164.36  443.36 167  440 167  C 436.64 167  434 164.36  434 161  C 434 157.64  436.64 155  440 155  Z " fill-rule="nonzero" fill="#ffffff" stroke="none" />
  <path d="M 440 155.5  C 443.08 155.5  445.5 157.92  445.5 161  C 445.5 164.08  443.08 166.5  440 166.5  C 436.92 166.5  434.5 164.08  434.5 161  C 434.5 157.92  436.92 155.5  440 155.5  Z " stroke-width="1" stroke="#797979" fill="none" />
  <path d="M 440 164  C 438.32 164  437 162.68  437 161  C 437 159.32  438.32 158  440 158  C 441.68 158  443 159.32  443 161  C 443 162.68  441.68 164  440 164  " fill-rule="nonzero" fill="#797979" stroke="none" />
</svg>