<?xml version="1.0" encoding="utf-8"?>
<svg version="1.1" xmlns:xlink="http://www.w3.org/1999/xlink" width="12px" height="12px" viewBox="585 155  12 12" xmlns="http://www.w3.org/2000/svg">
  <path d="M 591 155  C 594.36 155  597 157.64  597 161  C 597 164.36  594.36 167  591 167  C 587.64 167  585 164.36  585 161  C 585 157.64  587.64 155  591 155  Z " fill-rule="nonzero" fill="#ffffff" stroke="none" />
  <path d="M 591 155.5  C 594.08 155.5  596.5 157.92  596.5 161  C 596.5 164.08  594.08 166.5  591 166.5  C 587.92 166.5  585.5 164.08  585.5 161  C 585.5 157.92  587.92 155.5  591 155.5  Z " stroke-width="1" stroke="#797979" fill="none" />
  <path d="M 591 164  C 589.32 164  588 162.68  588 161  C 588 159.32  589.32 158  591 158  C 592.68 158  594 159.32  594 161  C 594 162.68  592.68 164  591 164  " fill-rule="nonzero" fill="#797979" stroke="none" />
</svg>