<?xml version="1.0" encoding="utf-8"?>
<svg version="1.1" xmlns:xlink="http://www.w3.org/1999/xlink" width="20px" height="10px" xmlns="http://www.w3.org/2000/svg">
  <g transform="matrix(1 0 0 1 -269 -150 )">
    <path d="M 9.32735426008969 7.5  L 9.95515695067263 7.5  L 11.2556053811659 6.67613636363635  L 9.55156950672642 5.59659090909091  L 8.25112107623318 6.42045454545453  L 8.25112107623318 6.81818181818181  L 9.32735426008969 6.81818181818181  L 9.32735426008969 7.5  Z M 14.8766816143498 2.62073863636365  C 15.0037369207773 2.54024621212122  15.0074738415545 2.46212121212122  14.8878923766816 2.38636363636365  C 14.7683109118087 2.31060606060606  14.6449925261584 2.31297348484847  14.5179372197309 2.39346590909091  L 10.5941704035874 4.87926136363635  C 10.46711509716 4.95975378787878  10.4633781763827 5.03787878787878  10.5829596412556 5.11363636363635  C 10.7025411061285 5.18939393939394  10.8258594917788 5.18702651515153  10.9529147982063 5.10653409090909  L 14.8766816143498 2.62073863636365  Z M 15.5605381165919 6.39914772727272  C 15.7100149476831 6.43702651515153  15.7847533632287 6.50568181818181  15.7847533632287 6.60511363636365  L 15.7847533632287 7.95454545454547  C 15.7847533632287 8.51799242424241  15.4689835575485 8.99976325757575  14.8374439461883 9.39985795454547  C 14.2059043348281 9.79995265151516  13.4454409566517 10  12.5560538116592 10  L 3.22869955156949 10  C 2.33931240657699 10  1.57884902840061 9.79995265151516  0.947309417040401 9.39985795454547  C 0.315769805680134 8.99976325757575  0 8.51799242424241  0 7.95454545454547  L 0 2.04545454545453  C 0 1.48200757575756  0.315769805680134 1.00023674242422  0.947309417040401 0.600142045454533  C 1.57884902840061 0.200047348484844  2.33931240657699 0  3.22869955156949 0  L 12.5560538116592 0  C 13.0269058295964 0  13.4641255605381 0.0591856060605949  13.8677130044843 0.177556818181813  C 13.9798206278027 0.210700757575751  14.0470852017937 0.26515151515153  14.0695067264574 0.340909090909093  C 14.091928251121 0.42140151515153  14.0582959641256 0.490056818181813  13.9686098654709 0.546875  L 13.4192825112108 0.894886363636346  C 13.314648729447 0.961174242424221  13.195067264574 0.980113636363654  13.0605381165919 0.951704545454533  C 12.8886397608371 0.923295454545467  12.7204783258595 0.909090909090907  12.5560538116592 0.909090909090907  L 3.22869955156949 0.909090909090907  C 2.7354260089686 0.909090909090907  2.31315396113604 1.02035984848484  1.96188340807174 1.24289772727272  C 1.61061285500745 1.46543560606059  1.43497757847535 1.73295454545453  1.43497757847535 2.04545454545453  L 1.43497757847535 7.95454545454547  C 1.43497757847535 8.26704545454547  1.61061285500745 8.53456439393941  1.96188340807174 8.75710227272728  C 2.31315396113604 8.97964015151516  2.7354260089686 9.09090909090909  3.22869955156949 9.09090909090909  L 12.5560538116592 9.09090909090909  C 13.0493273542601 9.09090909090909  13.4715994020927 8.97964015151516  13.822869955157 8.75710227272728  C 14.1741405082212 8.53456439393941  14.3497757847534 8.26704545454547  14.3497757847534 7.95454545454547  L 14.3497757847534 7.05965909090909  C 14.3497757847534 6.99810606060606  14.3834080717489 6.94602272727272  14.4506726457399 6.90340909090909  L 15.1681614349776 6.44886363636365  C 15.280269058296 6.37784090909091  15.4110612855008 6.36126893939394  15.5605381165919 6.39914772727272  Z M 7.17488789237666 6.13636363636365  L 14.7085201793722 1.36363636363635  L 17.9372197309417 3.40909090909091  L 10.4035874439462 8.18181818181819  L 7.17488789237666 8.18181818181819  L 7.17488789237666 6.13636363636365  Z M 20 1.81818181818181  C 20 2.00757575757575  19.8953662182362 2.16856060606059  19.6860986547085 2.30113636363635  L 18.6547085201794 2.95454545454547  L 15.4260089686098 0.909090909090907  L 16.457399103139 0.255681818181813  C 16.6666666666667 0.123106060606062  16.9207772795216 0.056818181818187  17.219730941704 0.056818181818187  C 17.5186846038864 0.056818181818187  17.7727952167414 0.123106060606062  17.9820627802691 0.255681818181813  L 19.6860986547085 1.33522727272728  C 19.8953662182362 1.46780303030303  20 1.62878787878788  20 1.81818181818181  Z " fill-rule="nonzero" fill="#ffffff" stroke="none" transform="matrix(1 0 0 1 269 150 )" />
  </g>
</svg>